<svg id="Layer_1" data-name="Layer 1" xmlns="http://www.w3.org/2000/svg" viewBox="0 0 1174 324"><defs><style>.cls-1{fill:#232012;}.cls-2{fill:#161510;}.cls-3{fill:#3a3217;}.cls-4{fill:#453a17;}.cls-5{fill:#fdfcfb;}.cls-10,.cls-6{fill:none;}.cls-12,.cls-13,.cls-15,.cls-16,.cls-17,.cls-18,.cls-6,.cls-7,.cls-8{stroke:#000;}.cls-10,.cls-12,.cls-13,.cls-15,.cls-16,.cls-17,.cls-18,.cls-6,.cls-7,.cls-8{stroke-miterlimit:10;}.cls-7{fill:#1facff;}.cls-9{fill:#030100;}.cls-10{stroke:#030100;}.cls-11{fill:#ffefed;}.cls-12,.cls-14{fill:#ffcf11;}.cls-13{fill:#fff;}.cls-15{fill:#fcfcfc;}.cls-16{fill:#facb33;}.cls-17{fill:#eda900;}.cls-18{fill:#fbcc34;}</style></defs><title>Artboard 3</title><path class="cls-1" d="M922.46,132.68l-2.9-1.08c.66-1.92,1.86-.24,2.65-.63s-.27-1.86,1-1.86.38,1.39.81,1.75c1,.61,2.16-1.17,3,.59-.76.9-2,.66-2.86,1.27.64,1,2.08.39,2.78,1.4-.58,1.85-1.77.12-2.59.45s.38,2.07-1.2,1.9c-1.19-.12-.24-1.3-.84-1.85-.78-.52-2,1.31-2.69-.34C920.14,133.1,921.63,133.73,922.46,132.68Z"/><path class="cls-2" d="M1128.7,104.8l3.07.25c-1.14.88-2.18.32-3.1.81-.08.8-.16,1.68-.27,2.76-1.05-.79-.26-2-.93-2.76-.68-.6-1.72.11-2.62-.57.78-.75,1.78-.09,2.71-.68.61-.57-.07-1.72.74-3C1128.47,103,1128.58,103.85,1128.7,104.8Z"/><path class="cls-3" d="M918.57,100c-.1,1.29-.66,2-1.86,2.07a1.88,1.88,0,1,1-.13-3.75A1.84,1.84,0,0,1,918.57,100Z"/><path class="cls-4" d="M1122.94,44.57c1.15.2,1.93.83,1.9,2a1.83,1.83,0,0,1-2.11,1.92,1.78,1.78,0,0,1-1.73-2C1121.07,45.27,1121.88,44.74,1122.94,44.57Z"/><path class="cls-3" d="M972.09,62.51a1.8,1.8,0,0,1-1.77,2,1.88,1.88,0,0,1-.25-3.76A1.79,1.79,0,0,1,972.09,62.51Z"/><path class="cls-4" d="M985.06,85.26c.92.59,2-.06,2.82.72-.73,1-1.89.25-2.72.75-.59.74.11,1.92-.95,3.06-.16-1.23-.26-2.07-.37-3-.75-.74-1.92.1-2.82-.69.68-1.05,1.86-.31,2.68-.78.67-.74-.23-2,.95-2.89C984.8,83.5,984.92,84.34,985.06,85.26Z"/><path class="cls-1" d="M1073.29,100h-5l2.47-4Z"/><path class="cls-3" d="M1133.08,164.62a1.88,1.88,0,0,1,1.91,1.81,1.74,1.74,0,0,1-1.83,1.91,1.65,1.65,0,0,1-1.81-1.64C1131.25,165.51,1131.89,164.86,1133.08,164.62Z"/><path class="cls-1" d="M1033.38,61c.87-1.29,1.57-2.35,2.45-3.65.86,1.26,1.57,2.31,2.47,3.65Z"/><path class="cls-5" d="M935.25,80.05s8.61-3.33-4.65-5.48c2.1-5.69-.09-9.09-6.29-9.76-2.53.74-8-7.21-11.24-2s2.7,5.09,1.53,5.45l-.61.36h0c0,.31-.06.6-.56.49l0,0c-.55,2.19.51,4.93-2.81,6.15-3.19,3.83.08,8.21,5.47,8.08s10.6,0,15.91,0c4.23,1.8,4.23-1,2-1.68C935.18,81.44,935.25,80.05,935.25,80.05Z"/><path class="cls-6" d="M933.68,79s8.61-3.34-4.65-5.49c2.1-5.69-.1-9.09-6.29-9.75-2.54.73-8-7.22-11.24-2s2.7,5.09,1.53,5.45l-.62.37,0,0c0,.32-.06.6-.56.49h0c-.55,2.18.52,4.92-2.81,6.14-3.19,3.83.09,8.22,5.48,8.09s10.6,0,15.91,0c4.23,1.8,4.23-1,2-1.68A1.85,1.85,0,0,0,933.68,79Z"/><path class="cls-5" d="M1169.25,202.05a5,5,0,0,0,2.75-2.44,5.21,5.21,0,0,0-1-5.61,12.56,12.56,0,0,0-3-4,13.81,13.81,0,0,0-9.69-3.19c-2.53.74-8-7.21-11.24-1.95-1.08,1.77-1.13,2.92-.77,3.69.6,1.25,2.41,1.09,2.46,1.67,0,.38-1.77.9-.77.45l-.53.46c-.55,2.19.51,4.93-2.81,6.15-.89,1.2-1.76,2.71-1.23,3.59.78,1.31,4.23.42,6.58.13,3.7-.45,9,.08,16,4.41-.9-1-1.33-2-1-2.41s1.6-.23,3,.73Z"/><path class="cls-6" d="M1167.68,201a23.05,23.05,0,0,0,2.75-2.45,22.53,22.53,0,0,0,3.07-4.06,14.88,14.88,0,0,0-6-7,15,15,0,0,0-10.76-1.73c-2.54.73-8-7.22-11.24-2-1,1.61-.21,3.49-.77,3.69a11,11,0,0,0-3.23,1c-.84.55-.7,1.92-1,2-2.39.61-2.13,4.92-1,6,.8.64,3.66,7.95,9,7.82s10.6,0,15.91,0c4.23,1.8,4.23-1,2-1.68Z"/><g id="_6PE5p7" data-name="6PE5p7"><path d="M874.56,81.22c0-.17.05-.3.09-.42.12-.33.45-.55.5-.92a11.85,11.85,0,0,0,1.62-3.45,2.63,2.63,0,0,0,.19-1c0-.41.17-.78.15-1.21,0-.76-.22-1.5-.3-2.26,0-.09-.1-.18-.09-.35l.16.12a.72.72,0,0,1,.19.2,2.34,2.34,0,0,0,1.65,1.23c.08,0,.16.11.23.11a5.8,5.8,0,0,0,3.2-.55A21,21,0,0,0,885,71.05c.45-.33.87-.71,1.3-1.06A4.82,4.82,0,0,1,888,69a3.25,3.25,0,0,1,.59-.09c.26,0,.52,0,.77,0a5.55,5.55,0,0,0,.71-.13.8.8,0,0,0,.69-.53.72.72,0,0,0,0-.68c-.37-.64-1.07-.79-1.62-1.17l-1.45.05c-.08,0-.16.08-.24.09a3,3,0,0,0-.93.12.71.71,0,0,1-.72-.08.58.58,0,0,0-.4,0,4.91,4.91,0,0,1-1.48-.16,1.61,1.61,0,0,1-.66-.41c-.18-.14-.34-.3-.6-.54a2.67,2.67,0,0,1,1.35.17,2.48,2.48,0,0,0,1.45.37,6.56,6.56,0,0,0,1.15-.25c.58-.19,1.2-.27,1.78-.45a6.09,6.09,0,0,0,1.8-.73c.31-.2.34-.52.56-.75.05-.66.35-1.32,0-2a8,8,0,0,0-1.7-3.5,10,10,0,0,0-1.61-1.7,6.33,6.33,0,0,0-2.48-1.42c-.38-.1-.62-.45-.89-.73a1.13,1.13,0,0,1-.29-.43,3.29,3.29,0,0,0-1.05-1.31,1.84,1.84,0,0,0-1.14-.46,1.77,1.77,0,0,0-1.31.36,1.1,1.1,0,0,0-.46.78,1.34,1.34,0,0,1-.84,1.18,2.72,2.72,0,0,0-1.28,1.12,5.35,5.35,0,0,1-2,1.87,4.9,4.9,0,0,1-1.22.42,8.38,8.38,0,0,1-2.95.12c-.81-.11-1.6-.05-2.4-.11a.45.45,0,0,0-.51.31,6.19,6.19,0,0,1-1.31,1.49s-.12,0-.27,0a10.61,10.61,0,0,0,.75-.76,3.36,3.36,0,0,0,.9-1.45,3.78,3.78,0,0,0,.11-2.16c-.12-.29.07-.64-.17-.92a9.39,9.39,0,0,0-1-2.79,12.65,12.65,0,0,0-1.07-1.86c-.25-.35-.53-.68-.81-1a12.5,12.5,0,0,0-2.75-2.32,5.28,5.28,0,0,0-2-.87c-.36-.06-.68-.31-1.07-.27-.25-.3-.63-.08-.95-.25s-.76-.07-1.11-.18a6.46,6.46,0,0,0-1.63-.14c-.22,0-.43-.12-.64-.12-.73,0-1.45.12-2.18.16a6,6,0,0,0-1.71.4,14.33,14.33,0,0,0-1.82.84,12.38,12.38,0,0,0-1.19.86,9.69,9.69,0,0,0-2.7,3,9.17,9.17,0,0,0-.52,1,15.77,15.77,0,0,0-.45,1.63c-.14.46-.1,1-.28,1.43a1.12,1.12,0,0,0,0,.41c0,.68,0,1.36,0,2a7.62,7.62,0,0,0,1.28,3.95,5.25,5.25,0,0,0,2,1.75,4.47,4.47,0,0,0,2.16.69,1.87,1.87,0,0,1,.32.08c.11,0,.27.09.31,0,.2-.19.43-.12.65-.13s.38.06.49,0c.34-.24.75-.19,1.11-.36a21.43,21.43,0,0,0,2.15-1.06.56.56,0,0,1,.3-.08A17.42,17.42,0,0,0,854,63.09c-.52.68-.93,1.43-1.39,2.15s-.77,1.46-1.21,2.17a7.42,7.42,0,0,0-.74,1.79,14.79,14.79,0,0,0-.46,2.12c-.08.6-.07,1.18-.11,1.77,0,.09,0,.21,0,.27.25.35,0,.76.18,1.12.19.55.35,1.11.55,1.66a9.29,9.29,0,0,0,1.57,2.57,13.9,13.9,0,0,0,3,2.85A7.2,7.2,0,0,0,858,82.63a4.18,4.18,0,0,1,1,.16c.35.16.69,0,1,.12a7.31,7.31,0,0,0,2,.13,6,6,0,0,0,2.05-.28c.11,0,.15-.1.31,0s.72,0,1,.2.64,0,.89.24c.06.07.27,0,.41,0,1.84,0,3.69.09,5.52,0,1.25-.08,2.49,0,3.72-.13.5,0,1-.11,1.49-.12a1.53,1.53,0,0,0,.79-.46.79.79,0,0,0-.69-1.22c-.7,0-1.4,0-2.1,0Z"/></g><path class="cls-6" d="M938,82.5l-77,1s-10,5,2,7"/><circle cx="916" cy="277" r="35.75"/><circle class="cls-7" cx="916.54" cy="277.54" r="28.17"/><circle class="cls-8" cx="916.54" cy="278.62" r="4.33"/><line class="cls-6" x1="916.54" y1="278.08" x2="916.54" y2="248.83"/><line class="cls-6" x1="916.54" y1="277.54" x2="930.62" y2="252.62"/><line class="cls-6" x1="916" y1="278.62" x2="945.25" y2="278.62"/><line class="cls-6" x1="941.46" y1="264.54" x2="915.46" y2="278.63"/><line class="cls-6" x1="914.92" y1="277.54" x2="885.67" y2="277.54"/><line class="cls-6" x1="914.65" y1="277.27" x2="889.73" y2="263.19"/><line class="cls-6" x1="915.46" y1="278.08" x2="915.46" y2="248.83"/><line class="cls-6" x1="901.65" y1="252.35" x2="915.73" y2="278.35"/><line class="cls-6" x1="916.54" y1="278.08" x2="916.54" y2="307.33"/><line class="cls-6" x1="915.82" y1="279.14" x2="901.74" y2="304.06"/><line class="cls-6" x1="917.08" y1="277.54" x2="887.83" y2="277.54"/><line class="cls-6" x1="890.9" y1="292.14" x2="916.9" y2="278.06"/><line class="cls-6" x1="917.08" y1="278.62" x2="946.33" y2="278.62"/><line class="cls-6" x1="917.72" y1="279.42" x2="942.63" y2="293.5"/><line class="cls-6" x1="916.54" y1="278.08" x2="916.54" y2="307.33"/><line class="cls-6" x1="930.72" y1="304.33" x2="916.63" y2="278.33"/><rect class="cls-9" x="912.75" y="238" width="6.5" height="4.33"/><rect class="cls-9" x="894.33" y="242.33" width="6.5" height="4.33" transform="translate(-2 481.55) rotate(-30)"/><rect class="cls-9" x="880.25" y="256.42" width="6.5" height="4.33" transform="translate(217.81 894.43) rotate(-60)"/><rect class="cls-9" x="875.92" y="274.83" width="6.5" height="4.33" transform="translate(602.17 1156.17) rotate(-90)"/><rect class="cls-9" x="880.25" y="293.25" width="6.5" height="4.33" transform="translate(1069.41 1208.26) rotate(-120)"/><rect class="cls-9" x="912.75" y="311.67" width="6.5" height="4.33" transform="translate(1832 627.67) rotate(180)"/><rect class="cls-9" x="894.33" y="307.33" width="6.5" height="4.33" transform="translate(303.3 -430.95) rotate(32.22)"/><rect class="cls-9" x="931.17" y="242.33" width="6.5" height="4.33" transform="translate(247.44 -434.45) rotate(30)"/><rect class="cls-9" x="946.33" y="258.58" width="6.5" height="4.33" transform="translate(700.61 -691.99) rotate(60)"/><rect class="cls-9" x="949.58" y="275.92" width="6.5" height="4.33" transform="translate(674.75 1230.92) rotate(-90)"/><rect class="cls-9" x="944.17" y="294.33" width="6.5" height="4.33" transform="translate(1677.9 -375.74) rotate(120)"/><rect class="cls-9" x="931.17" y="307.33" width="6.5" height="4.33" transform="translate(-34.62 482.41) rotate(-28.44)"/><path class="cls-4" d="M813.67,318.79h74.1v.42H813.65Z"/><path class="cls-3" d="M983.51,270.12c4.79.05,9,1.53,12.24,5.19,4.11,4.65,3.39,11.53-1.65,15.74a13.55,13.55,0,0,1-7.62,3.38l0-.73a21.9,21.9,0,0,0,6.35-2.77c3.32-2.39,5-5.55,4.59-9.63s-2.91-6.8-6.42-8.61a18.82,18.82,0,0,0-7.47-1.77Z"/><path d="M849.21,282c.69-5.6,4.95-10,11.4-10.78,4.9-.57,9.92-.12,15.25-.12-1.06.81-2,.51-2.77.54-4.16.16-8.33-.33-12.47.36-5.74,1-9.78,4.77-10.68,10Z"/><path d="M849.21,282l.73,0c.31,7.31,5.1,12.13,12.45,12.47,2.41.11,4.83.1,7.24.17.77,0,1.59-.16,2.2.58-7.1.31-14.4,1.43-20-4.8A9.59,9.59,0,0,1,849.21,282Z"/><path class="cls-2" d="M986.46,293.7l0,.73H960v-.73Z"/><path class="cls-4" d="M983.51,270.12v.8H966.63v-.8Z"/><line class="cls-10" x1="887.5" y1="318.5" x2="814.5" y2="319.5"/><line class="cls-10" x1="901.5" y1="319.5" x2="928.5" y2="319.5"/><path class="cls-10" d="M967,270.5l21,1a11.37,11.37,0,0,1,6,2,11.69,11.69,0,0,1,4.64,11.26c-1,5.7-7.21,10.32-14.64,9.74H960"/><path class="cls-3" d="M839.26,223.12c-4.79,0-9,1.53-12.25,5.19-4.1,4.65-3.39,11.53,1.65,15.74a13.61,13.61,0,0,0,7.62,3.38l0-.73a22.07,22.07,0,0,1-6.36-2.77c-3.32-2.39-5-5.55-4.58-9.63s2.9-6.8,6.42-8.61a18.82,18.82,0,0,1,7.47-1.77Z"/><path class="cls-2" d="M836.31,246.7l0,.73h26.51v-.73Z"/><path class="cls-4" d="M839.26,223.12v.8h16.87v-.8Z"/><path class="cls-10" d="M855.76,223.5l-21,1a11.37,11.37,0,0,0-6,2,11.69,11.69,0,0,0-4.63,11.26c1,5.7,7.2,10.32,14.63,9.74H891.5"/><line class="cls-10" x1="906.5" y1="318.5" x2="910.5" y2="308.5"/><line class="cls-10" x1="920.5" y1="308.5" x2="924.5" y2="318.5"/><polyline class="cls-10" points="865.5 221.5 881.05 221.5 921.5 221.5 920.5 215.5 880.5 215.5"/><rect class="cls-10" x="875.75" y="177.5" width="53" height="38"/><rect class="cls-10" x="865.5" y="177.5" width="10" height="4"/><rect class="cls-10" x="928.5" y="177.5" width="10" height="4"/><line class="cls-10" x1="881.5" y1="221.5" x2="882.5" y2="215.5"/><rect class="cls-10" x="867.5" y="183" width="2" height="10.5"/><rect class="cls-10" x="871.5" y="183" width="2" height="10.5"/><rect class="cls-10" x="867.5" y="196" width="2" height="10.5"/><rect class="cls-10" x="871.5" y="196" width="2" height="10.5"/><polygon class="cls-10" points="902.25 148.55 889 167.41 915.5 167.41 902.25 148.55"/><polygon class="cls-10" points="902.25 143 885 167.5 919.5 167.5 902.25 143"/><rect class="cls-10" x="865.5" y="181.5" width="10" height="34"/><rect class="cls-10" x="928.5" y="181.5" width="10" height="34"/><rect class="cls-10" x="877.96" y="181.5" width="49.08" height="31"/><rect class="cls-10" x="885.5" y="181.5" width="10" height="31"/><rect class="cls-10" x="907.5" y="181.5" width="10" height="31"/><rect class="cls-10" x="876" y="167.5" width="53" height="10"/><rect class="cls-10" x="880.5" y="170.5" width="43" height="4"/><rect class="cls-10" x="1009.5" y="224.5" width="42" height="81"/><rect class="cls-10" x="1016.5" y="235.5" width="2" height="9"/><rect class="cls-10" x="1023.5" y="235.5" width="2" height="9"/><rect class="cls-10" x="1029.5" y="235.5" width="2" height="9"/><rect class="cls-10" x="1036.5" y="235.5" width="2" height="9"/><rect class="cls-10" x="1042.5" y="235.5" width="2" height="9"/><rect class="cls-10" x="1016.5" y="248.5" width="2" height="9"/><rect class="cls-10" x="1023.5" y="248.5" width="2" height="9"/><rect class="cls-10" x="1029.5" y="248.5" width="2" height="9"/><rect class="cls-10" x="1036.5" y="248.5" width="2" height="9"/><rect class="cls-10" x="1042.5" y="248.5" width="2" height="9"/><rect class="cls-10" x="1016.5" y="275.5" width="2" height="9"/><rect class="cls-10" x="1023.5" y="275.5" width="2" height="9"/><rect class="cls-10" x="1029.5" y="275.5" width="2" height="9"/><rect class="cls-10" x="1036.5" y="275.5" width="2" height="9"/><rect class="cls-10" x="1042.5" y="275.5" width="2" height="9"/><rect class="cls-10" x="1016.5" y="288.5" width="2" height="9"/><rect class="cls-10" x="1023.5" y="288.5" width="2" height="9"/><rect class="cls-10" x="1029.5" y="288.5" width="2" height="9"/><rect class="cls-10" x="1036.5" y="288.5" width="2" height="9"/><rect class="cls-10" x="1042.5" y="288.5" width="2" height="9"/><rect class="cls-10" x="1016.5" y="261.5" width="29" height="10"/><rect class="cls-10" x="995.5" y="306.5" width="69" height="12"/><rect class="cls-11" x="998.5" y="308.5" width="69" height="12"/><rect class="cls-10" x="1005.5" y="170.5" width="48" height="54"/><rect class="cls-10" x="1007.5" y="181.5" width="43" height="26"/><rect class="cls-7" x="1015.5" y="184.5" width="2" height="20"/><rect class="cls-7" x="1031.5" y="184.5" width="2" height="20"/><rect class="cls-7" x="1042.5" y="184.5" width="2" height="20"/><rect class="cls-10" x="1023.5" y="188.5" width="2" height="3"/><rect class="cls-10" x="1023.5" y="198.5" width="2" height="3"/><rect class="cls-10" x="1008.5" y="153.5" width="42" height="17"/><rect class="cls-10" x="1018.5" y="153.5" width="4" height="17"/><rect class="cls-10" x="1038.5" y="153.5" width="4" height="17"/><polygon class="cls-10" points="1008.5 153.5 1018.5 145.5 1041.5 145.5 1050.5 153.5 1008.5 153.5"/><rect class="cls-10" x="1018.5" y="126.5" width="23" height="19"/><polygon class="cls-10" points="1029.35 51.5 1017.2 126.5 1041.5 126.5 1029.35 51.5"/><rect class="cls-10" x="867.5" y="208.5" width="6" height="4"/><rect class="cls-10" x="930.5" y="183" width="2" height="10.5"/><rect class="cls-10" x="934.5" y="183" width="2" height="10.5"/><rect class="cls-10" x="930.5" y="196" width="2" height="10.5"/><rect class="cls-10" x="934.5" y="196" width="2" height="10.5"/><rect class="cls-10" x="930.5" y="208.5" width="6" height="4"/><rect class="cls-10" x="952.5" y="87" width="33" height="151.5"/><polygon class="cls-10" points="998.5 238.5 986.5 238.5 985.5 109.01 997.5 109.01 998.5 238.5"/><rect class="cls-10" x="959.5" y="226.85" width="18" height="11.65"/><rect class="cls-10" x="974.5" y="215.19" width="5" height="5.18"/><rect class="cls-10" x="967" y="215.19" width="5" height="5.18"/><rect class="cls-10" x="959.5" y="215.19" width="5" height="5.18"/><rect class="cls-10" x="974.5" y="203.54" width="5" height="5.18"/><rect class="cls-10" x="967" y="203.54" width="5" height="5.18"/><rect class="cls-10" x="959.5" y="203.54" width="5" height="5.18"/><rect class="cls-10" x="974.5" y="191.88" width="5" height="5.18"/><rect class="cls-10" x="967" y="191.88" width="5" height="5.18"/><rect class="cls-10" x="959.5" y="191.88" width="5" height="5.18"/><rect class="cls-10" x="974.5" y="180.23" width="5" height="5.18"/><rect class="cls-10" x="967" y="180.23" width="5" height="5.18"/><rect class="cls-10" x="959.5" y="180.23" width="5" height="5.18"/><rect class="cls-10" x="974.5" y="168.58" width="5" height="5.18"/><rect class="cls-10" x="967" y="168.58" width="5" height="5.18"/><rect class="cls-10" x="959.5" y="168.58" width="5" height="5.18"/><rect class="cls-10" x="974.5" y="156.92" width="5" height="5.18"/><rect class="cls-10" x="967" y="156.92" width="5" height="5.18"/><rect class="cls-10" x="959.5" y="156.92" width="5" height="5.18"/><rect class="cls-10" x="974.5" y="145.27" width="5" height="5.18"/><rect class="cls-10" x="967" y="145.27" width="5" height="5.18"/><rect class="cls-10" x="959.5" y="145.27" width="5" height="5.18"/><rect class="cls-10" x="974.5" y="133.62" width="5" height="5.18"/><rect class="cls-10" x="967" y="133.62" width="5" height="5.18"/><rect class="cls-10" x="959.5" y="133.62" width="5" height="5.18"/><rect class="cls-10" x="974.5" y="121.96" width="5" height="5.18"/><rect class="cls-10" x="967" y="121.96" width="5" height="5.18"/><rect class="cls-10" x="959.5" y="121.96" width="5" height="5.18"/><rect class="cls-10" x="974.5" y="110.31" width="5" height="5.18"/><rect class="cls-10" x="967" y="110.31" width="5" height="5.18"/><rect class="cls-10" x="959.5" y="110.31" width="5" height="5.18"/><rect class="cls-10" x="974.5" y="98.65" width="5" height="5.18"/><rect class="cls-10" x="967" y="98.65" width="5" height="5.18"/><rect class="cls-10" x="959.5" y="98.65" width="5" height="5.18"/><rect class="cls-10" x="988.5" y="121.96" width="5" height="6.47"/><rect class="cls-10" x="988.5" y="124.55" width="5" height="6.47"/><rect class="cls-10" x="988.5" y="134.91" width="5" height="6.47"/><rect class="cls-10" x="988.5" y="137.5" width="5" height="6.47"/><rect class="cls-10" x="988.5" y="147.86" width="5" height="6.47"/><rect class="cls-10" x="988.5" y="150.45" width="5" height="6.47"/><rect class="cls-10" x="988.5" y="160.81" width="5" height="6.47"/><rect class="cls-10" x="988.5" y="163.4" width="5" height="6.47"/><rect class="cls-10" x="988.5" y="173.76" width="5" height="6.47"/><rect class="cls-10" x="988.5" y="176.35" width="5" height="6.47"/><rect class="cls-10" x="988.5" y="186.71" width="5" height="6.47"/><rect class="cls-10" x="988.5" y="189.29" width="5" height="6.47"/><rect class="cls-10" x="988.5" y="199.65" width="5" height="6.47"/><rect class="cls-10" x="988.5" y="202.24" width="5" height="6.47"/><rect class="cls-10" x="988.5" y="212.6" width="5" height="6.47"/><rect class="cls-10" x="988.5" y="215.19" width="5" height="6.47"/><rect class="cls-10" x="988.5" y="225.55" width="5" height="6.47"/><rect class="cls-10" x="988.5" y="228.14" width="5" height="6.47"/><circle class="cls-12" cx="933.5" cy="134.5" r="24"/><line class="cls-6" x1="931" y1="133.5" x2="915" y2="133.5"/><line class="cls-6" x1="931" y1="130.5" x2="915" y2="130.5"/><line class="cls-6" x1="952.5" y1="125.5" x2="914" y2="125.5"/><line class="cls-6" x1="952.5" y1="142.5" x2="914" y2="142.5"/><line class="cls-6" x1="952.5" y1="146.5" x2="914" y2="146.5"/><line class="cls-6" x1="931" y1="136.5" x2="915" y2="136.5"/><line class="cls-6" x1="931" y1="139.5" x2="915" y2="139.5"/><line class="cls-6" x1="951" y1="130.5" x2="935" y2="130.5"/><line class="cls-6" x1="951" y1="133.5" x2="935" y2="133.5"/><line class="cls-6" x1="951" y1="136.5" x2="935" y2="136.5"/><line class="cls-6" x1="951" y1="139.5" x2="935" y2="139.5"/><polygon class="cls-6" points="1133.46 128.05 1103.55 110.15 1073.1 127.1 1072.54 161.95 1102.45 179.85 1132.9 162.9 1133.46 128.05"/><line class="cls-6" x1="1073.5" y1="161.5" x2="1103.5" y2="110.5"/><line class="cls-6" x1="1132.5" y1="162.5" x2="1103.5" y2="110.5"/><line class="cls-6" x1="1073" y1="161.5" x2="1133" y2="161.5"/><line class="cls-6" x1="1072.5" y1="126.5" x2="1097.5" y2="141.5"/><line class="cls-6" x1="1102.5" y1="180" x2="1102.5" y2="145"/><line class="cls-6" x1="1133.5" y1="128.5" x2="1108.5" y2="141.5"/><line class="cls-6" x1="1103.5" y1="110.5" x2="1103.5" y2="137.5"/><polygon class="cls-13" points="1072.89 121.66 1068.02 124.01 1066.82 129.28 1070.19 133.5 1075.59 133.5 1078.96 129.28 1077.76 124.01 1072.89 121.66"/><polygon class="cls-7" points="1102.89 104.66 1098.02 107.01 1096.82 112.28 1100.19 116.5 1105.59 116.5 1108.96 112.28 1107.76 107.01 1102.89 104.66"/><polygon class="cls-13" points="1102.89 173.66 1098.02 176.01 1096.82 181.28 1100.19 185.5 1105.59 185.5 1108.96 181.28 1107.76 176.01 1102.89 173.66"/><polygon class="cls-7" points="1132.89 156.66 1128.02 159.01 1126.82 164.28 1130.19 168.5 1135.59 168.5 1138.96 164.28 1137.76 159.01 1132.89 156.66"/><polygon class="cls-7" points="1072.89 155.66 1068.02 158.01 1066.82 163.28 1070.19 167.5 1075.59 167.5 1078.96 163.28 1077.76 158.01 1072.89 155.66"/><polygon class="cls-13" points="1132.89 121.66 1128.02 124.01 1126.82 129.28 1130.19 133.5 1135.59 133.5 1138.96 129.28 1137.76 124.01 1132.89 121.66"/><polygon class="cls-8" points="1102.89 137.66 1098.02 140.01 1096.82 145.28 1100.19 149.5 1105.59 149.5 1108.96 145.28 1107.76 140.01 1102.89 137.66"/><line class="cls-10" x1="1161" y1="267" x2="1161" y2="245"/><circle class="cls-10" cx="1161.5" cy="244.5" r="12"/><line class="cls-10" x1="1167.5" y1="238.5" x2="1160.5" y2="245.5"/><line class="cls-10" x1="1151.5" y1="241.5" x2="1161.5" y2="245.5"/><line class="cls-10" x1="1161.5" y1="250.5" x2="1155.5" y2="245.5"/><g id="O8XqnR"><path d="M1092.09,286a3.83,3.83,0,0,1,1.22.71c.31.2.63.4,1,.57a1.72,1.72,0,0,0,1.07.18,1.28,1.28,0,0,0,.53-.24,7,7,0,0,1,1.25-.76,3,3,0,0,1,.6-.21.44.44,0,0,1,.49.22,2.36,2.36,0,0,1,.44,1,.64.64,0,0,1-.33.7,8.9,8.9,0,0,1-1.63.75l-.92.29c-.09,0-.11.06-.11.15,0,1.07,0,2.15,0,3.23q0,3.25,0,6.53v.12l.44.06a8,8,0,0,1,2.85.94,7.52,7.52,0,0,1,2.64,2.31,8.13,8.13,0,0,1,1.33,3.28c0,.24,0,.5.06.75,0,0,0,.06,0,.09v1l0,.26a8.16,8.16,0,0,1-.46,1.89,8.07,8.07,0,0,1-1.5,2.48,7.76,7.76,0,0,1-3.8,2.42,6.65,6.65,0,0,1-1.38.29l-.54,0h-1.16l-.27,0a8,8,0,0,1-4-1.71,7.28,7.28,0,0,1-1.12-1.1,7,7,0,0,1-.77-1.1,7.35,7.35,0,0,1-1-2.84c0-.18,0-.37-.07-.56v-.8c0-.19,0-.38.07-.57a7.86,7.86,0,0,1,1-2.9,7.34,7.34,0,0,1,2-2.43,8.63,8.63,0,0,1,4-1.7l.81-.08c0-.25,0-.5,0-.75,0-1.49.06-3,.08-4.47,0-1,0-2.08.06-3.13,0-.54,0-1.08,0-1.63,0,0,0-.06,0-.09a12.75,12.75,0,0,1-3.19-1.61l-.61-.37a.2.2,0,0,1-.12-.2.81.81,0,0,1,.06-.35,1,1,0,0,1,.69-.6,0,0,0,0,0,0,0Zm3.43,16.81-.73-.72c0-.05,0-.09,0-.13v-1.26c0-.11,0-.14-.14-.13a5.55,5.55,0,0,0-1.79.37,8.32,8.32,0,0,0-2.28,1.35,5.46,5.46,0,0,0-1.19,1.3,6.94,6.94,0,0,0-1,2.57,5.65,5.65,0,0,0,0,2.13,7.44,7.44,0,0,0,2,3.73,6.56,6.56,0,0,0,1.88,1.29,4,4,0,0,0,1.72.42,11.41,11.41,0,0,0,1.85-.08,7,7,0,0,0,2.74-.91,6.25,6.25,0,0,0,2.86-3.72,9.76,9.76,0,0,0,.25-1.31,5.8,5.8,0,0,0,0-1.5A6.24,6.24,0,0,0,1101,304a6.41,6.41,0,0,0-1.35-1.76,7.4,7.4,0,0,0-2.8-1.47,3.53,3.53,0,0,0-1.06-.19c-.18,0-.19,0-.19.17,0,.64,0,1.28,0,1.91A.78.78,0,0,1,1095.52,302.83Z"/><path d="M1095.52,302.83a.69.69,0,0,1,0,.13c0,1,0,1.92,0,2.88a.2.2,0,0,0,.14.22,1.33,1.33,0,0,1,.64,1.72l0,.12c.22.1.43.2.65.28.41.17.82.36,1.25.49s.88.21,1.31.3l.38.07c.13,0,.15.06.14.19s0,.43-.07.64,0,.2,0,.3,0,.13-.13.12l-1-.07-.54,0a.55.55,0,0,1-.51-.65c0-.1,0-.2,0-.29a.38.38,0,0,0-.22-.4l-.53-.23-.92-.35a.2.2,0,0,0-.22,0,1.41,1.41,0,0,1-2-.32,1.31,1.31,0,0,1-.08-1.3l0-.11-.6-.24-1.26-.5a.57.57,0,0,0-.22,0c-.28,0-.57,0-.85,0l-.18,0a.27.27,0,0,1-.26-.3V305a.25.25,0,0,1,.21-.27.63.63,0,0,1,.19,0h1.27l.19,0a.24.24,0,0,1,.21.28c0,.17,0,.34,0,.51a.17.17,0,0,0,.06.12l1.46.64a.11.11,0,0,0,.09,0l.4-.22a.15.15,0,0,0,.06-.1c0-.73,0-1.45.07-2.17l.06-1.54s0-.05,0-.07Zm.56,4.43a1,1,0,0,0-1-1,1,1,0,1,0,1,1Z"/><path d="M1095.06,308a.74.74,0,1,1,.75-.74A.75.75,0,0,1,1095.06,308Z"/></g><line class="cls-10" x1="1165" y1="315" x2="1081" y2="315"/><g id="o6TdRc"><path d="M1121.52,266.87a.88.88,0,0,1,.22.1c.25.2.48.41.71.63a.63.63,0,0,1,.1.25.7.7,0,0,1-.29,0c-.31-.17-.61-.37-.92-.56a1,1,0,0,0-.25-.08l0,.06c.11.23.22.46.32.69a1.26,1.26,0,0,1,.1.38.19.19,0,0,1-.08.18.22.22,0,0,1-.19-.05c-.18-.26-.34-.54-.51-.8s-.08-.3-.32-.26c0,.16,0,.33,0,.49a5.58,5.58,0,0,1-.09.59.2.2,0,0,1-.15.13.2.2,0,0,1-.14-.13,5.31,5.31,0,0,1-.1-.68c0-.23,0-.47,0-.7a.3.3,0,0,0-.44-.3c-.19.05-.37.11-.56.15a.57.57,0,0,1-.29,0,.22.22,0,0,1-.12-.16s.07-.09.12-.12c.25-.15.51-.28.75-.43a.28.28,0,0,0,.1-.22,31.38,31.38,0,0,1-.3-3.61,21.09,21.09,0,0,0-.52-3.23,10.25,10.25,0,0,1-.32-2.2c0-.68.06-1.36.1-2a2.37,2.37,0,0,0-.16-1.34c-.11-.21-.18-.45-.27-.67a.49.49,0,0,0-.77-.19c.16.23.34.45.49.69a3.14,3.14,0,0,1-2,4.67,2.9,2.9,0,0,1-3.11-1.49,3.14,3.14,0,0,1,.23-3.57l.13-.2a.4.4,0,0,0-.64.16c-.09.23-.17.46-.28.68a2.52,2.52,0,0,0-.18,1.51,9.58,9.58,0,0,1-.17,3.88,21.2,21.2,0,0,0-.58,3.26c-.06.61,0,1.24-.07,1.85s-.15,1.33-.24,2a.18.18,0,0,0,.1.23c.26.14.52.3.79.44l.2.11a.4.4,0,0,1-.54.21l-.5-.18a.32.32,0,0,0-.47.26c-.07.34-.11.67-.18,1a1.34,1.34,0,0,1-.13.4c0,.06-.12.14-.15.12a.22.22,0,0,1-.14-.16c0-.23,0-.46,0-.69s0-.21,0-.32l-.06,0a.93.93,0,0,0-.18.16c-.17.28-.32.56-.5.83,0,.08-.17.12-.26.17,0-.11-.1-.23-.07-.33a7.38,7.38,0,0,1,.3-.78,1.76,1.76,0,0,1,.09-.2l0-.05-.23.11c-.29.2-.57.41-.88.59-.09.06-.22,0-.34,0a1.11,1.11,0,0,1,.15-.31c.21-.21.43-.4.65-.59l.15-.14,0-.06h-.9l0-.08a1,1,0,0,1,.26-.2q.47-.18,1-.33a.39.39,0,0,0,.34-.41c0-.34.05-.68,0-1a24.7,24.7,0,0,1,.11-3.22,12,12,0,0,0,0-2.54,20.62,20.62,0,0,1,.06-4.23c.07-1.05.11-2.1.17-3.16a27.67,27.67,0,0,1,.61-3.93c.27-1.35.55-2.71.75-4.08a11.76,11.76,0,0,0,0-2.22,3.12,3.12,0,0,0-.31-.92,19.51,19.51,0,0,1-1.22-5.44c-.15-1.74-.26-3.5-.41-5.24a11.27,11.27,0,0,0-.75-2.86,16.62,16.62,0,0,1-.94-3c-.14-1-.24-1.92-.32-2.88a26,26,0,0,0-.62-3.84c-.19-.78-.4-1.57-.64-2.34a2,2,0,0,0-.78-1.17.21.21,0,0,1,0-.22.69.69,0,0,1,.24-.21,3.19,3.19,0,0,1,1.62-.48,1,1,0,0,1,.93.56,2.55,2.55,0,0,1,.34,1.34,9.32,9.32,0,0,0,1.22,4,18.4,18.4,0,0,1,1.51,3.5,12.94,12.94,0,0,1,.45,2.47,30.83,30.83,0,0,0,1.23,6,13.12,13.12,0,0,0,1.29,3.37,1.88,1.88,0,0,0,1.57.92.77.77,0,0,0,.72-.43,12.11,12.11,0,0,0,1.11-2.69c.4-1.38.8-2.76,1.12-4.16a21.05,21.05,0,0,0,.37-2.76,12.66,12.66,0,0,1,1.21-4.38c.48-1,1-2,1.43-3a6.49,6.49,0,0,0,.52-2.2,7.62,7.62,0,0,1,.18-1.27,1.17,1.17,0,0,1,1.6-1,5.08,5.08,0,0,1,1.22.48c.3.16.26.24,0,.48a3.05,3.05,0,0,0-.58.85,13,13,0,0,0-.74,2.54,30.35,30.35,0,0,0-.71,5,15.19,15.19,0,0,1-1,4.41,11.7,11.7,0,0,0-.82,2.84c-.09.64-.12,1.29-.16,1.93-.13,1.68-.21,3.36-.37,5a16.21,16.21,0,0,1-1.21,4.69,1.53,1.53,0,0,0-.08.37,13.58,13.58,0,0,0,.31,3.36c.32,1.64.68,3.28,1,4.93a21.16,21.16,0,0,1,.3,2.26c.12,1.53.2,3.07.28,4.61a9.06,9.06,0,0,1-.09,1.8,11.91,11.91,0,0,0,0,2.07c0,.85.14,1.69.18,2.54,0,.58,0,1.16,0,1.75,0,.21,0,.42,0,.63a.3.3,0,0,0,.24.28l.7.2a2.7,2.7,0,0,1,.4.14c.06,0,.09.12.13.18a.45.45,0,0,1-.17.11,4.69,4.69,0,0,1-.53,0l-.17,0Z"/></g><path d="M1095.13,243.07c0-.21,0-.43,0-.64a1.5,1.5,0,0,1,.06-.29.24.24,0,0,1,.32-.15.93.93,0,0,1,.47.27c.18.17.35.35.51.53a.85.85,0,0,0,.76.31,8.81,8.81,0,0,1,.89,0,.8.8,0,0,0,.67-.25l.59-.6a.9.9,0,0,1,.4-.26c.27-.06.4,0,.42.3a4.75,4.75,0,0,1-.14,1.5,6,6,0,0,0-.17,1.19,3.37,3.37,0,0,1-.19.89.46.46,0,0,0,0,.41s0,.11,0,.16a1.85,1.85,0,0,0,0,.23c0,.23,0,.46,0,.69s0,.31.25.51c.05-.11.1-.21.14-.32.16-.49.32-1,.46-1.48a2.65,2.65,0,0,0,0-1.12,1,1,0,0,0-.19-.35.75.75,0,0,1,0-.75.39.39,0,0,1,.33-.24.11.11,0,0,0,.08,0,.4.4,0,0,1,.43-.14,2,2,0,0,1,.41.14.55.55,0,0,1,.29.34,5.78,5.78,0,0,1,.24.7,1,1,0,0,1,0,.46c-.19,1.25-.54,2.46-.83,3.68-.07.29-.12.58-.18.87a1.52,1.52,0,0,1-.24.62.2.2,0,0,0,0,.08c-.09.34-.36.61-.39,1a6.78,6.78,0,0,0,0,.9c0,.53,0,1,.07,1.58a15,15,0,0,1-.11,1.77c0,.52-.07,1.05-.1,1.58a.18.18,0,0,0,.13.18,2.72,2.72,0,0,1,1.2,1.05,3,3,0,0,1,.39,1.82,3.19,3.19,0,0,1-.54,1.6,3,3,0,0,1-.72.74.55.55,0,0,0-.22.35c-.1.55-.21,1.09-.32,1.64a4.64,4.64,0,0,0,0,1.44,10.63,10.63,0,0,0,.18,1.13,1.14,1.14,0,0,0,.19.42,1.41,1.41,0,0,1,.2.69c0,.07,0,.1.1.11a.36.36,0,0,1,.23.19l-.07,0a3.11,3.11,0,0,1-.86.16.75.75,0,0,0-.2,0,.62.62,0,0,1-.38-.06s-.08,0-.11,0a.29.29,0,0,1-.31-.32l.06-.82a8.54,8.54,0,0,0-.22-1.88c-.07-.35-.09-.72-.13-1.09s-.06-.68-.11-1a1.4,1.4,0,0,0-.16-.38s-.08,0-.12-.06l-.25-.13c-.1,0-.19-.1-.29-.13a.52.52,0,0,0-.46.12l0,0c-.14.11-.17.11-.27-.05a.62.62,0,0,0-.14.39,4.4,4.4,0,0,0,0,.62,4.52,4.52,0,0,1-.13,1.22,8.39,8.39,0,0,0-.16,2.06c0,.17,0,.34,0,.52a.49.49,0,0,1-.16.43.55.55,0,0,1-.22.1,3.5,3.5,0,0,1-1.25,0l-.16-.05c-.08,0-.08-.09,0-.13a1.8,1.8,0,0,1,.21-.08s.06,0,0-.06a2,2,0,0,1,.13-.8l.24-.68a4.4,4.4,0,0,0,.25-1.28,3.29,3.29,0,0,0,0-.54,2.84,2.84,0,0,0-.34-1,3.78,3.78,0,0,1-.4-1.23,10.63,10.63,0,0,1,0-2.11,4.69,4.69,0,0,1,.2-1,9.38,9.38,0,0,0,.25-3.25c0-.41-.12-.8-.18-1.2a7.24,7.24,0,0,1-.06-1.47c0-.37,0-.73,0-1.1a4,4,0,0,0-.38-1.66l-.09-.15a2.32,2.32,0,0,1-.44-1.27c0-.44-.08-.88-.13-1.32s-.14-1-.21-1.52c0-.23-.1-.45-.13-.67s0-.63-.09-.94a1.89,1.89,0,0,0-.09-.34.3.3,0,0,1,0-.13c0-.29.05-.57.1-.86a.58.58,0,0,1,.12-.25,3.47,3.47,0,0,1,.25-.29.29.29,0,0,1,.29-.1.38.38,0,0,0,.21,0,.26.26,0,0,1,.31.12A.36.36,0,0,0,1095.13,243.07Zm.15.89a.89.89,0,0,0-.16.52,2.67,2.67,0,0,1,0,.4,8,8,0,0,0,0,.85,9.43,9.43,0,0,0,.41,1.88l.06.17c.16-.08.26-.18.23-.37a1,1,0,0,1,0-.25s0-.07,0-.1a1.51,1.51,0,0,0,0-.3c0-.16,0-.32,0-.48s0-.18,0-.27a2,2,0,0,0-.07-.23,2.58,2.58,0,0,1-.21-.95A1.65,1.65,0,0,0,1095.28,244Zm5.32,17a1.85,1.85,0,0,0-.31-2.54c0,.19.07.38.11.56s.11.44.14.66,0,.65.06,1Zm-2.93-15.1s0-.05,0-.07a.17.17,0,0,1,.17-.19s0,0,.07-.07,0-.05-.08-.05h-.46s-.05,0-.08.06,0,.07.06.07.15.08.2.15Z"/><line class="cls-6" x1="1091" y1="267" x2="1171" y2="267"/><path class="cls-3" d="M350.47,254.56a6.29,6.29,0,0,1,2,9.65,8,8,0,0,1-5.47,3c-4.07.38-8.15.18-12.23.22-.11,0-.23-.11-.45-.23.45-.45.94-.3,1.37-.31,3.3,0,6.61,0,9.91-.06a8.79,8.79,0,0,0,5.15-1.73,5.9,5.9,0,0,0,.63-9.42l-1.05-1A.19.19,0,0,0,350.47,254.56Z"/><path class="cls-3" d="M304.34,299.53a6.29,6.29,0,0,1,2,9.65,8.06,8.06,0,0,1-5.47,3c-4.07.37-8.15.17-12.23.21-.11,0-.23-.11-.45-.22.45-.45.94-.31,1.37-.31,3.3,0,6.61,0,9.91-.06a8.87,8.87,0,0,0,5.15-1.74,5.9,5.9,0,0,0,.63-9.42l-1.05-1A.24.24,0,0,0,304.34,299.53Z"/><path class="cls-3" d="M123.58,268.44a7.39,7.39,0,0,0-2.36,11.34,9.4,9.4,0,0,0,6.44,3.54c4.77.44,9.57.21,14.37.25.13,0,.26-.13.53-.26-.53-.53-1.11-.36-1.62-.37-3.88,0-7.76,0-11.64-.07-3.62-.63-4.25-.73-6.06-2a6.93,6.93,0,0,1-.73-11.07l1.23-1.17A.24.24,0,0,1,123.58,268.44Z"/><path class="cls-5" d="M116.23,143.24s-11.27-4.37,6.1-7.18c-2.75-7.46.12-11.91,8.24-12.78,3.31,1,4.33-1.9,8.55,5s2.63-.88,4.16-.41l.81.48,0,0c0,.41.08.78.73.63h0c.72,2.86-.67,6.45,3.68,8.05,4.18,5-.11,10.76-7.16,10.59s-13.9,0-20.84,0c-5.55,2.37-5.55-1.34-2.61-2.19A2.46,2.46,0,0,1,116.23,143.24Z"/><path class="cls-6" d="M118.29,141.87s-11.27-4.37,6.1-7.18c-2.75-7.46.12-11.91,8.24-12.78,3.31,1,4.33-1.91,8.54,5s2.64-.89,4.17-.41l.81.47h0c0,.41.08.78.73.63l0,0c.72,2.86-.67,6.45,3.68,8.06,4.18,5-.11,10.75-7.17,10.58s-13.89,0-20.83.06c-5.55,2.36-5.55-1.34-2.61-2.19A2.46,2.46,0,0,1,118.29,141.87Z"/><rect class="cls-6" x="42.7" y="185.81" width="47.36" height="118.73"/><rect class="cls-6" x="25.54" y="304.55" width="81.67" height="9.61"/><rect class="cls-6" x="32.4" y="255.13" width="10.29" height="49.42"/><rect class="cls-6" x="90.05" y="237.29" width="10.98" height="67.26"/><rect class="cls-6" x="51.62" y="117.87" width="10.98" height="67.95"/><rect class="cls-6" x="52.31" y="185.81" width="19.22" height="118.73"/><rect class="cls-14" x="56.08" y="185.47" width="10.29" height="118.73"/><rect class="cls-6" x="56.42" y="185.81" width="10.29" height="118.73"/><rect class="cls-6" x="79.76" y="185.81" width="6.18" height="118.73"/><rect class="cls-6" x="62.6" y="117.87" width="19.9" height="67.95"/><rect class="cls-13" x="70.84" y="117.87" width="8.24" height="67.95"/><rect class="cls-13" x="55.05" y="117.87" width="4.12" height="67.95"/><rect class="cls-6" x="37.21" y="191.3" width="5.49" height="63.83"/><rect class="cls-6" x="55.05" y="87.67" width="21.28" height="30.2"/><rect class="cls-13" x="57.8" y="87.67" width="4.12" height="30.2"/><rect class="cls-15" x="69.46" y="87.67" width="4.12" height="30.2"/><rect class="cls-6" x="65.35" y="61.59" width="4.12" height="26.08"/><rect class="cls-6" x="67.41" y="41" width="0.69" height="20.59"/><circle class="cls-16" cx="33.43" cy="149.1" r="32.94"/><path class="cls-8" d="M52.26,164.67l-.68.45a4.85,4.85,0,0,1-2.91-1.82,40.23,40.23,0,0,1-5-5.71c-1.51-2.21-3.73-2.09-5.18.16a18.51,18.51,0,0,0-2.28,5.14l.77,1.77-.72.82a1.38,1.38,0,0,1-1.48-1.42,13.15,13.15,0,0,1,0-2.51c.2-1.49.5-3,.76-4.46l-.47-1.25a11,11,0,0,0-2-.56c-1.35-.12-2.68-.72-4.09-.22a2.45,2.45,0,0,0-1.4,1.09c-.93,1.53-1.84,3.08-2.71,4.53a3.36,3.36,0,0,0,1.38,3.16l.93.18a1,1,0,0,1,.14,1.36,2.42,2.42,0,0,1-2.64-.59,6.69,6.69,0,0,1-2.34-3.71,4.09,4.09,0,0,1-.07-1.84,8.72,8.72,0,0,0,.1-2.85c-1,.32-1.95.66-2.89.9-1.59.4-2.43,1.57-2.72,3.41a12.66,12.66,0,0,1-.52,1.92c-.16.48-.44.8-.94.67-.61-.54-.46-1.35-.38-2a35,35,0,0,1,.64-3.66,6.31,6.31,0,0,1,1.49-2.92,11,11,0,0,0,2.12-4.47c.44-1.47.83-3,1.25-4.46A16.58,16.58,0,0,1,17,138.5a11.31,11.31,0,0,1,.26-6.16c.76-2.08,2.07-3.23,4.06-3.14.35,0,.71,0,1,.06,1.28,1,1.36,1.25.78,2.54h-.87c-1.92,0-3.24,1.57-3,3.8a10.63,10.63,0,0,0,3.08,6.93,13.45,13.45,0,0,1,2.09-.28,24.18,24.18,0,0,1,3.06.29c2,.29,4,.57,5.93,1a27.91,27.91,0,0,0,6,.58,4.76,4.76,0,0,0,4.07-2.3,5.71,5.71,0,0,1,3-2.48c.68-.52.84-1.76,1.91-1.91l.23,1.85a10.11,10.11,0,0,1,1.43,1.42,12.16,12.16,0,0,1,.76,1.8c.25.56.55,1.08.83,1.61a2.7,2.7,0,0,1,.3,2,2.4,2.4,0,0,1-2.17,1.48c-1.61,0-2.71,1.34-2.86,3.25a15.31,15.31,0,0,0,.74,6A14.37,14.37,0,0,0,51.38,163,2.07,2.07,0,0,1,52.26,164.67Z"/><g id="_8yReRh" data-name="8yReRh"><path d="M151,91.1c-1.19.21-2.13.36-3.06.54a1.79,1.79,0,0,1-.83,0A14.31,14.31,0,0,1,144,90.43c-1.24-.65-2.35-1.46-3.55-2.16a.42.42,0,0,1-.11-.15l.15-.06c1.07-.35,2.15-.7,3.2-1.08a15.83,15.83,0,0,0,2.44-1,1.08,1.08,0,0,0,.48-.43.92.92,0,0,0,0-.59.7.7,0,0,0-.48,0A19,19,0,0,0,144,86a11.31,11.31,0,0,0-2.31.94,10.52,10.52,0,0,1-2.19.69c-.3,0-.4,0-.44-.28-.24-1.64-.5-3.28-.76-4.92a5.25,5.25,0,0,0-.09-.55c0-.07-.13-.13-.19-.19s-.15.14-.15.22a1.9,1.9,0,0,0,.05.4c.1.63.17,1.27.3,1.9.17.8-.06,1.64.19,2.43,0,.05-.09.15-.15.22a3.46,3.46,0,0,1-2.09.68c-.18,0-.39-.19-.6-.19a10.82,10.82,0,0,0-2.48-.07,1.84,1.84,0,0,1-.4-.06,1,1,0,0,0-.34,0,.51.51,0,0,0-.22.24c0,.05.1.17.18.19.47.11.94.21,1.42.29s.86.1,1.29.16c.24,0,.26.14.1.33s-.28.36-.43.53-.33.29-.49.43a5.53,5.53,0,0,0,.55.53c.29.21.61.38.91.59.15.11.23.28.38.38.51.33.39.69.13,1.17-.37.69-.65,1.43-1.07,2.11a4.45,4.45,0,0,1-.26.48.48.48,0,0,0-.12.52.53.53,0,0,0,.16.23.43.43,0,0,0,.21-.11l.44-.69,1.56-2.4c.07-.11.13-.15.25,0a18.56,18.56,0,0,1,2.09,1.45,7.29,7.29,0,0,0,1.5,1.11c.35.22.54.61,1,.7s.3.61-.07.87a1.79,1.79,0,0,1-1,.52s-.07.07-.1.1a.44.44,0,0,0,.15,0c.63-.06,1.25-.09,1.88-.18a14,14,0,0,0,1.92-.34c1-.25,1.91-.13,2.85-.32a16.17,16.17,0,0,1,2.89-.49c1.45,0,2.82-.51,4.24-.6s2.72-.45,4.07-.54a11.69,11.69,0,0,1,3-.08,9.1,9.1,0,0,1,2.44-.07,12.59,12.59,0,0,1,2.88.11c.55-.24,1,0,1.57.07a10.1,10.1,0,0,1,1.42.26c2.09.39,4.11,1,6.15,1.54A25.55,25.55,0,0,1,180,97.5a2.56,2.56,0,0,0,1.47.13q12.94-2.32,25.92-4.59a11.32,11.32,0,0,0,3.4-1.21,8.62,8.62,0,0,0,2.91-2.39,2.66,2.66,0,0,0,.52-1.66c0-.71-.79-1.5-1.56-1.89s-1.42-.37-1.92-.88a14.75,14.75,0,0,0-2.15-1.5,13.24,13.24,0,0,0-2.19-1.11,2.52,2.52,0,0,0-.79-.16,14.36,14.36,0,0,1-2.86-.48c-.29-.07-.42-.36-.55-.62s-.22-.62-.57-.79a1.07,1.07,0,0,0-.7-.22,2.75,2.75,0,0,1-.85-.2,3.16,3.16,0,0,0-1.23-.07c-.9.18-1.82.3-2.72.5-1.1.23-1.35-.23-1.74-1-.24-.45-.21-.49-.72-.41l-3,.53c-.18,0-.26,0-.28-.18s-.11-.63-.15-1,.1-.45.42-.49.56-.22.84,0c0,0,.16,0,.25,0,.89-.1,1.77-.22,2.67-.3a6.72,6.72,0,0,0,1.18,0,1.81,1.81,0,0,1,1.17-.06s.06,0,.09,0c.89-.11,1.78-.22,2.67-.31.36,0,.72,0,1.09,0s.73-.21,1.09,0a.61.61,0,0,0,.17,0c.89-.1,1.78-.22,2.67-.3a6.7,6.7,0,0,0,1.18,0,1.91,1.91,0,0,1,1.18,0s.06,0,.08,0l2.67-.3c.36,0,.73,0,1.09,0s.73-.21,1.1,0c0,0,.11,0,.17,0,.89-.11,1.78-.23,2.67-.3a7.88,7.88,0,0,0,1.18,0,1.81,1.81,0,0,1,1.17,0l.09,0,2.67-.3c.36,0,.73,0,1.09,0s.73-.21,1.09,0c0,0,.06,0,.09,0,.83-.09,1.66-.19,2.49-.27.39,0,.78,0,1.18,0s.78-.27,1.18-.05c.06,0,.17,0,.26,0a5.75,5.75,0,0,1,1.71-.16c.34,0,.39-.05.35-.37-.09-.56-.12-.57-.78-.52-.34,0-.68,0-1,0a7,7,0,0,0-2,.15,14.88,14.88,0,0,0-1.79.16c-.73,0-1.44.2-2.14.2a13.72,13.72,0,0,0-1.45.12c-.36,0-.72,0-1.09,0s-.73.2-1.09,0c0,0-.11,0-.17,0l-2.67.31a5.09,5.09,0,0,0-1.1,0,1.2,1.2,0,0,1-1,0s-.11,0-.17,0c-.83.09-1.66.19-2.49.27a6.69,6.69,0,0,0-1.18,0,1.71,1.71,0,0,1-1.18.06s-.06,0-.09,0c-.83.09-1.66.19-2.49.27-.36,0-.73,0-1.09,0s-.73.25-1.09,0c0,0-.06,0-.09,0-.83.09-1.66.2-2.49.27a11.64,11.64,0,0,1-1.18,0c-.39,0-.78.31-1.18.06,0,0-.11,0-.17,0-.83.09-1.66.19-2.49.27-.37,0-.73,0-1.09,0a2.94,2.94,0,0,1-1.11,0c-.23-.08-.57.08-.86.13a2.66,2.66,0,0,1-1.72-.13.19.19,0,0,0-.15,0,2.44,2.44,0,0,1-1.7-.47c-.25-.13-.34-.05-.55,0-.52.2-1,.38-1.56.6-.17.08-.33.1-.28.32,0,0-.17.12-.2.1-.36-.23-.73,0-1.09,0a15.05,15.05,0,0,0-2.41.26c-.42-.2-.84,0-1.26.06l-1.27.06c-.39,0-.79.27-1.18,0,0,0-.12,0-.17,0l-2.67.3a7.8,7.8,0,0,0-1.18,0,1.71,1.71,0,0,1-1.18.06s-.11,0-.17,0c-.89.1-1.78.27-2.67.28-.64,0-1.27.19-1.88.16a12.34,12.34,0,0,0-1.62.15c-.36,0-.72,0-1.09,0s-.73.2-1.09,0c0,0-.11,0-.17,0-.89.1-1.78.22-2.67.3a6.69,6.69,0,0,0-1.18,0,1.9,1.9,0,0,1-1.18.06s-.11,0-.17,0a24.2,24.2,0,0,1-2.67.29c-.61,0-1.21.18-1.79.15s-1.21.18-1.79.15-1.16.2-1.7.14-1.09.17-1.62.13-1.26.16-1.88.16a4.76,4.76,0,0,0-1,0c-.36.07-.47.24-.4.58a.42.42,0,0,0,.52.37l2.05-.2a4.52,4.52,0,0,0,1.1,0,1.24,1.24,0,0,1,1,0s.11,0,.17,0c.83-.1,1.66-.18,2.49-.29.37,0,.71.11,1.1,0a1.52,1.52,0,0,1,1.09,0s.05,0,.08,0c.83-.09,1.66-.17,2.49-.28a7.92,7.92,0,0,0,1.19,0,1.53,1.53,0,0,1,1.17-.07.15.15,0,0,0,.09,0,21.63,21.63,0,0,1,2.41-.25,7.49,7.49,0,0,1,1.26-.07c.39,0,.79-.28,1.18-.05,0,0,.11,0,.17,0l2.49-.28a6.81,6.81,0,0,0,1.19,0,1.63,1.63,0,0,1,1.17-.06.15.15,0,0,0,.09,0,21.63,21.63,0,0,1,2.41-.25,6.51,6.51,0,0,1,1.17-.06c.37,0,.73-.28,1.1,0,0,0,.11,0,.17,0,.83-.09,1.66-.19,2.49-.27.36,0,.73,0,1.09,0s.73-.21,1.09,0a.15.15,0,0,0,.09,0,21.63,21.63,0,0,1,2.41-.25,6.51,6.51,0,0,1,1.17-.06,3.14,3.14,0,0,1,1.11-.06c.31.09.74-.11,1.12-.17s.55,0,.58.38a4.25,4.25,0,0,1,0,1.07c0,.17-.21.3-.45.34-.88.13-1.75.33-2.63.44-.42,0-.73.3-1.13.38s-.78,0-1,.34a6.75,6.75,0,0,0-2.16.74,13.81,13.81,0,0,0-2.52,1.19.58.58,0,0,0-.29.32,6.14,6.14,0,0,1-.72,1.33,2.47,2.47,0,0,1-1.68,1.15,1.73,1.73,0,0,0-.51.25,5.12,5.12,0,0,1-1.83.48c-.81.11-1.54.51-2.36.6a10.5,10.5,0,0,0-2.44.44,50.54,50.54,0,0,1-5.26,1.07c-.87.2-1.74.44-2.62.62s-1.86.33-2.8.5a17.17,17.17,0,0,0-2.7.51C153.32,90.77,152,90.83,151,91.1Z"/></g><polygon points="176.35 134.73 174.58 133.89 173.23 135.32 173.48 133.37 171.71 132.53 173.63 132.17 173.89 130.22 174.83 131.95 176.76 131.58 175.41 133.01 176.35 134.73"/><rect x="184.6" y="133.76" width="1.17" height="1.17"/><rect x="121.28" y="159.39" width="6.86" height="6.86"/><rect x="155.99" y="185.14" width="9.34" height="9.34"/><rect class="cls-6" x="137.41" y="246.9" width="197.66" height="20.59"/><rect class="cls-6" x="196.43" y="165.22" width="35" height="81.67"/><rect class="cls-6" x="197.12" y="174.83" width="25.39" height="72.06"/><rect class="cls-6" x="277.42" y="157.68" width="35.69" height="89.22"/><rect class="cls-6" x="231.44" y="139.14" width="45.3" height="107.75"/><rect class="cls-6" x="241.73" y="151.5" width="6.86" height="6.86"/><rect class="cls-6" x="260.26" y="151.5" width="6.86" height="6.86"/><rect class="cls-6" x="250.65" y="151.5" width="6.86" height="6.86"/><rect class="cls-6" x="241.73" y="163.17" width="6.86" height="6.86"/><rect class="cls-6" x="260.26" y="163.17" width="6.86" height="6.86"/><rect class="cls-6" x="250.65" y="163.17" width="6.86" height="6.86"/><rect class="cls-6" x="241.73" y="174.83" width="6.86" height="6.86"/><rect class="cls-6" x="260.26" y="174.83" width="6.86" height="6.86"/><rect class="cls-6" x="250.65" y="174.83" width="6.86" height="6.86"/><rect class="cls-6" x="241.73" y="186.5" width="6.86" height="6.86"/><rect class="cls-6" x="260.26" y="186.5" width="6.86" height="6.86"/><rect class="cls-6" x="250.65" y="186.5" width="6.86" height="6.86"/><rect class="cls-6" x="241.73" y="198.17" width="6.86" height="6.86"/><rect class="cls-6" x="260.26" y="198.17" width="6.86" height="6.86"/><rect class="cls-6" x="250.65" y="198.17" width="6.86" height="6.86"/><rect class="cls-6" x="241.73" y="209.84" width="6.86" height="6.86"/><rect class="cls-6" x="260.26" y="209.84" width="6.86" height="6.86"/><rect class="cls-6" x="250.65" y="209.84" width="6.86" height="6.86"/><rect class="cls-6" x="241.73" y="221.5" width="6.86" height="6.86"/><rect class="cls-6" x="260.26" y="221.5" width="6.86" height="6.86"/><rect class="cls-6" x="250.65" y="221.5" width="6.86" height="6.86"/><rect class="cls-6" x="279.48" y="141.2" width="31.57" height="17.16"/><rect class="cls-6" x="282.23" y="141.2" width="2.06" height="17.16"/><rect class="cls-6" x="292.52" y="141.2" width="2.06" height="17.16"/><rect class="cls-6" x="296.64" y="141.2" width="2.06" height="17.16"/><rect class="cls-6" x="305.56" y="141.2" width="2.06" height="17.16"/><rect class="cls-6" x="280.17" y="136.4" width="29.51" height="4.12"/><rect class="cls-6" x="282.23" y="136.4" width="2.06" height="4.12"/><rect class="cls-6" x="286.34" y="136.4" width="2.06" height="4.12"/><rect class="cls-6" x="289.77" y="136.4" width="2.06" height="4.12"/><rect class="cls-6" x="293.89" y="136.4" width="2.06" height="4.12"/><rect class="cls-6" x="298.01" y="136.4" width="2.06" height="4.12"/><rect class="cls-6" x="301.44" y="136.4" width="2.06" height="4.12"/><rect class="cls-6" x="305.56" y="136.4" width="2.06" height="4.12"/><rect class="cls-6" x="279.48" y="148.07" width="31.57" height="2.06"/><rect class="cls-6" x="282.23" y="163.17" width="6.86" height="6.86"/><rect class="cls-6" x="300.76" y="163.17" width="6.86" height="6.86"/><rect class="cls-6" x="282.23" y="174.83" width="6.86" height="6.86"/><rect class="cls-6" x="300.76" y="174.83" width="6.86" height="6.86"/><rect class="cls-6" x="282.23" y="186.5" width="6.86" height="6.86"/><rect class="cls-6" x="300.76" y="186.5" width="6.86" height="6.86"/><rect class="cls-6" x="282.23" y="198.17" width="6.86" height="6.86"/><rect class="cls-6" x="300.76" y="198.17" width="6.86" height="6.86"/><rect class="cls-6" x="282.23" y="209.84" width="6.86" height="6.86"/><rect class="cls-6" x="300.76" y="209.84" width="6.86" height="6.86"/><rect class="cls-6" x="282.23" y="221.5" width="6.86" height="6.86"/><rect class="cls-6" x="300.76" y="221.5" width="6.86" height="6.86"/><rect class="cls-6" x="282.23" y="233.17" width="6.86" height="6.86"/><rect class="cls-6" x="300.76" y="233.17" width="6.86" height="6.86"/><rect class="cls-6" x="282.23" y="163.17" width="25.39" height="77.55"/><rect x="200.21" y="175.18" width="2.24" height="72.06"/><rect x="205.52" y="175.18" width="2.24" height="72.06"/><rect x="211.88" y="175.18" width="2.24" height="72.06"/><rect x="217.19" y="175.18" width="2.24" height="72.06"/><rect class="cls-6" x="282.23" y="167.28" width="6.86" height="6.86"/><rect class="cls-6" x="300.76" y="167.28" width="6.86" height="6.86"/><rect class="cls-6" x="282.23" y="178.95" width="6.86" height="6.86"/><rect class="cls-6" x="300.76" y="178.95" width="6.86" height="6.86"/><rect class="cls-6" x="282.23" y="190.62" width="6.86" height="6.86"/><rect class="cls-6" x="300.76" y="190.62" width="6.86" height="6.86"/><rect class="cls-6" x="282.23" y="202.29" width="6.86" height="6.86"/><rect class="cls-6" x="300.76" y="202.29" width="6.86" height="6.86"/><rect class="cls-6" x="282.23" y="213.95" width="6.86" height="6.86"/><rect class="cls-6" x="300.76" y="213.95" width="6.86" height="6.86"/><rect class="cls-6" x="282.23" y="225.62" width="6.86" height="6.86"/><rect class="cls-6" x="300.76" y="225.62" width="6.86" height="6.86"/><rect class="cls-6" x="282.23" y="237.29" width="6.86" height="6.86"/><rect class="cls-6" x="300.76" y="237.29" width="6.86" height="6.86"/><rect class="cls-6" x="282.23" y="166.6" width="25.39" height="77.55"/><rect class="cls-6" x="284.28" y="130.22" width="21.96" height="6.18"/><rect class="cls-6" x="289.77" y="117.18" width="9.61" height="13.73"/><polygon class="cls-6" points="299.67 117.18 304.67 126.79 299.67 136.4 289.68 136.4 284.68 126.79 289.68 117.18 299.67 117.18"/><rect class="cls-6" x="293.89" y="101.4" width="2.75" height="29.51"/><rect class="cls-6" x="291.83" y="130.22" width="6.18" height="6.18"/><polygon points="200.08 108 194.12 116.97 202.12 118.57 200.08 108"/><rect class="cls-6" x="275.96" y="298.1" width="14.07" height="14.07"/><rect class="cls-6" x="253.8" y="298.13" width="14.01" height="14.01"/><polygon class="cls-6" points="288.55 272.13 279.93 287.05 297.16 287.05 288.55 272.13"/><polygon class="cls-6" points="241.88 123.88 233.26 138.8 250.49 138.8 241.88 123.88"/><polygon class="cls-6" points="265.21 123.88 256.59 138.8 273.82 138.8 265.21 123.88"/><polygon class="cls-6" points="253.54 99.86 244.93 114.78 262.16 114.78 253.54 99.86"/><polygon class="cls-17" points="260.52 284.97 251.9 294.04 269.13 294.04 260.52 284.97"/><polygon class="cls-6" points="201.81 297.65 201.81 311.67 215.82 311.67 215.82 297.65 218.16 299.4 219.32 298.23 209.11 288.01 198.89 298.23 200.35 299.69 201.81 297.65"/><polygon class="cls-6" points="222.31 312.15 222.31 302.4 220.17 303.8 218.56 302.75 229 295.97 238.64 302.23 237.31 303.1 235.16 301.71 235.16 312.15 222.31 312.15"/><rect class="cls-6" x="107.56" y="312.44" width="203.15" height="2.06"/><rect class="cls-6" x="142.27" y="282.95" width="135.47" height="1.17"/><circle class="cls-16" cx="117.68" cy="217.21" r="42.72"/><g id="xeuPUa"><path d="M99.4,215.8c0,3.91,0,7.82,0,11.73a3.27,3.27,0,0,1-.26.88,2.21,2.21,0,0,0-.12.42c0,.33,0,.66,0,1A1.14,1.14,0,0,1,97.81,231H87.92a1.19,1.19,0,0,1-1.34-1.38c0-.2,0-.41,0-.61a1.28,1.28,0,0,0-.22-.8,1.3,1.3,0,0,1-.2-.7q0-7.85,0-15.67V204a1.19,1.19,0,0,1,1.35-1.34H98c.79,0,1.19.25,1.38.86a1,1,0,0,1,0,.34V215.8Zm-6.64-9h0c1.67,0,3.33,0,5,0,.31,0,.41-.1.39-.39s0-.73,0-1.1a1.21,1.21,0,0,0-1-1.21,2.92,2.92,0,0,0-.51,0H89.2a3.74,3.74,0,0,0-.75.06,1.2,1.2,0,0,0-1,1.18c0,.38,0,.75,0,1.13s.08.37.37.37C89.46,206.82,91.11,206.83,92.76,206.83Zm0,2.7h5c.29,0,.37-.1.36-.38a14.42,14.42,0,0,1,0-1.47c0-.33-.08-.43-.42-.43H87.81c-.29,0-.38.1-.37.38q0,.75,0,1.5c0,.3.09.39.39.39C89.48,209.52,91.13,209.53,92.79,209.53Zm5.31.49-.21,0H87.74c-.24,0-.29.1-.29.31,0,.49,0,1,0,1.47,0,.32.07.44.41.43,1.27,0,2.53,0,3.8,0h6.12c.17,0,.32,0,.32-.23C98.09,211.33,98.1,210.69,98.1,210Zm-5.31,2.63H88.18c-.8,0-.74-.18-.73.74a1.24,1.24,0,0,0,1.37,1.41h8a1.22,1.22,0,0,0,1.3-1.28c0-.17,0-.34,0-.51s-.07-.38-.37-.38C96.12,212.66,94.46,212.65,92.79,212.65Zm0,16.15H88.46c-.88,0-.87,0-.88.88,0,.27.09.34.35.34H97.2c.82,0,.8,0,.82-.84,0-.31-.11-.38-.4-.38Z"/><path d="M116.82,202.23c4.77,0,9.53,0,14.3,0a1.65,1.65,0,0,1,1.74,1.73c0,5.6,0,11.2,0,16.8,0,.48,0,1,0,1.44a1.58,1.58,0,0,1-1.71,1.72c-2.13,0-4.26,0-6.39,0H121.2c-.29,0-.37.11-.37.38,0,.73,0,1.46,0,2.18a.67.67,0,0,0,.71.7c1.09,0,2.19,0,3.28,0a.53.53,0,0,1,.55.35c.13.32.29.62.43.93s.1.46-.31.46H107.27c-.33,0-.42-.15-.29-.44s.33-.73.53-1.07a.61.61,0,0,1,.44-.22c1.21,0,2.42,0,3.63,0,.5,0,.72-.18.74-.68,0-.76,0-1.53,0-2.29,0-.27-.15-.29-.35-.29h-9.54a1.59,1.59,0,0,1-1.72-1.73v-3.08q0-7.55,0-15.09a1.54,1.54,0,0,1,.74-1.53,2.09,2.09,0,0,1,.94-.25Zm0,20.11h14.23c.46,0,.47,0,.47-.46,0-2.45,0-4.9,0-7.35V204.16c0-.26-.07-.36-.34-.36H102.54c-.35,0-.44.1-.44.44q0,3,0,6.09c0,3.88,0,7.75,0,11.63,0,.3.1.38.4.38Zm-.2,2H114c-.43,0-.66.2-.67.56a.56.56,0,0,0,.64.59h5.27a.58.58,0,0,0,.63-.61c0-.34-.23-.53-.64-.54Z"/><path d="M116.4,234.49H99.5a1.36,1.36,0,0,1-.55-.14.44.44,0,0,1-.25-.62l1.35-3.68a.82.82,0,0,1,.85-.59h31a.83.83,0,0,1,.87.58l1.23,3.36a.65.65,0,0,0,0,.13c.22.61,0,1-.7,1H116.4Zm0-.86h13.2c.85,0,1.71,0,2.56,0,.54,0,.74-.29.57-.77-.29-.83-.6-1.64-.89-2.47s-.29-.73-1-.73H101.9c-.56,0-.64,0-.84.56-.32.83-.6,1.67-.91,2.5-.24.64-.07.91.61.91Z"/><path d="M138,233.57c-.57,0-1.14,0-1.71,0A2.28,2.28,0,0,1,134.1,231a.84.84,0,0,1,.85-.82c1.33,0,2.66-.07,4,0a2.39,2.39,0,0,1,1.95,2.6.86.86,0,0,1-.87.8c-.66,0-1.32,0-2,0Z"/></g><rect class="cls-7" x="102.08" y="203.8" width="29.47" height="18.55"/><g id="RH4FCc"><path d="M123.51,192.77a5.8,5.8,0,0,1,1.11-1.36,3.39,3.39,0,0,1,2.75-.84l.91.15.41-.86c.45-.94.89-1.89,1.34-2.84.12-.25.24-.49.35-.74a1.3,1.3,0,0,1,1.8-.67c.57.27,1.14.53,1.71.82a1.27,1.27,0,0,1,.55,1.64c-.28.6-.56,1.2-.85,1.8a.91.91,0,0,0-.06.16l.69.34c.76.38,1.51.75,2.27,1.11l2.89,1.42,3.19,1.56a.33.33,0,0,0,.22,0,1.76,1.76,0,0,1,2.25,1.76,1.71,1.71,0,0,1-.87,1.45.22.22,0,0,0-.11.23c0,1,0,2,0,3l0,4.79,0,4.62-.06,9.26v.19h1.78c0,.28,0,.54,0,.8s0,.16.16.16h1.44v.87H148v1.07h-10.3v-1.06h.69v-.88H140v-1h2V219c0-1.46,0-2.92,0-4.38l.09-7.91.12-8.92a.34.34,0,0,0-.13-.29,1.67,1.67,0,0,1-.63-1.44.22.22,0,0,0-.14-.23l-2.78-1.36-3.54-1.74-2.3-1.12-.39.83.44.29a2.37,2.37,0,0,1,.95,2.33,4.69,4.69,0,0,1-.68,1.87L133,197l-.93-.41-2.13-.94a.16.16,0,0,0-.15,0,2.34,2.34,0,0,1-2.4.31,1.73,1.73,0,0,1-1.16-1.34,3.38,3.38,0,0,1,0-.64l-.49-.22-2.13-.95-.12,0Zm20,27,.15-21.84-.94-.06-.27,21.9Zm-1.32-25-8.83-4.34-.4.84,8.66,4.25Z"/></g><rect class="cls-6" x="233.5" y="141.2" width="41.18" height="103.63"/><line class="cls-6" x1="245.16" y1="151.84" x2="245.16" y2="158.7"/><line class="cls-6" x1="254.09" y1="151.84" x2="254.09" y2="158.7"/><rect class="cls-6" x="250.48" y="116.32" width="6.86" height="6.86" transform="translate(373.67 -134.16) rotate(90)"/><rect class="cls-6" x="250.48" y="125.25" width="6.86" height="6.86" transform="translate(382.59 -125.24) rotate(90)"/><line class="cls-6" x1="257" y1="119.76" x2="250.14" y2="119.76"/><line class="cls-6" x1="257" y1="128.68" x2="250.14" y2="128.68"/><line class="cls-6" x1="263.69" y1="151.84" x2="263.69" y2="158.7"/><line class="cls-6" x1="263.69" y1="162.82" x2="263.69" y2="169.69"/><line class="cls-6" x1="254.09" y1="162.82" x2="254.09" y2="169.69"/><line class="cls-6" x1="245.16" y1="162.82" x2="245.16" y2="169.69"/><line class="cls-6" x1="245.16" y1="175.18" x2="245.16" y2="182.04"/><line class="cls-6" x1="254.09" y1="175.18" x2="254.09" y2="182.04"/><line class="cls-6" x1="263.69" y1="175.18" x2="263.69" y2="182.04"/><line class="cls-6" x1="263.69" y1="186.16" x2="263.69" y2="193.02"/><line class="cls-6" x1="254.09" y1="186.16" x2="254.09" y2="193.02"/><line class="cls-6" x1="245.16" y1="186.16" x2="245.16" y2="193.02"/><line class="cls-6" x1="245.16" y1="198.51" x2="245.16" y2="205.37"/><line class="cls-6" x1="254.09" y1="198.51" x2="254.09" y2="205.37"/><line class="cls-6" x1="263.69" y1="198.51" x2="263.69" y2="205.37"/><line class="cls-6" x1="263.69" y1="209.49" x2="263.69" y2="216.36"/><line class="cls-6" x1="254.09" y1="209.49" x2="254.09" y2="216.36"/><line class="cls-6" x1="245.16" y1="209.49" x2="245.16" y2="216.36"/><line class="cls-6" x1="263.69" y1="221.85" x2="263.69" y2="228.71"/><line class="cls-6" x1="254.09" y1="221.85" x2="254.09" y2="228.71"/><line class="cls-6" x1="245.16" y1="221.85" x2="245.16" y2="228.71"/><rect class="cls-6" x="247.91" y="115.12" width="11.67" height="18.53"/><rect class="cls-6" x="252.03" y="133.65" width="2.75" height="5.49"/><rect class="cls-6" x="204.64" y="294.94" width="8.92" height="2.75"/><rect class="cls-7" x="224.71" y="305.37" width="8.18" height="6.75"/><rect class="cls-6" x="207.05" y="302.49" width="4.12" height="8.92"/><rect class="cls-7" x="224.71" y="306.01" width="8.18" height="0.96"/><rect class="cls-7" x="224.71" y="307.94" width="8.18" height="0.96"/><rect class="cls-7" x="224.71" y="309.87" width="8.18" height="0.96"/><rect class="cls-6" x="203.3" y="299.06" width="0.69" height="12.35"/><rect class="cls-6" x="213.59" y="299.06" width="0.69" height="12.35"/><rect class="cls-6" x="208.79" y="299.06" width="0.69" height="2.75"/><polygon class="cls-6" points="215.97 299.06 202.24 299.06 202.24 299.06 215.97 299.06 215.97 299.06"/><circle class="cls-18" cx="197.5" cy="165.5" r="35"/><g id="mKi41s"><path d="M206,164.26v7.91c0,3.81,0,7.61,0,11.42a4.4,4.4,0,0,1-2.82,4.12,5.4,5.4,0,0,1-2,.37c-2.11,0-4.22,0-6.33,0a4.75,4.75,0,0,1-4-2,3.81,3.81,0,0,1-.72-2.28c0-2.7,0-5.4,0-8.1V158.48c0-4.44,0-8.87,0-13.31a2.64,2.64,0,0,1,2.22-2.84,9.28,9.28,0,0,1,2.35-.23c2.22,0,4.45,0,6.68,0a8,8,0,0,1,2.86.39,2.51,2.51,0,0,1,1.41,1.13A2.7,2.7,0,0,1,206,145v19.25Zm-1.8,6a5.82,5.82,0,0,0-1.06-3.35c-.31-.44-.55-.47-.93-.09l-1.35,1.35-1.74,1.73c-.29.3-.3.48,0,.79l.89.87,2.33,2.33a.35.35,0,0,0,.48.06,1,1,0,0,0,.28-.26A6,6,0,0,0,204.19,170.26Zm-5.87-5.82a6,6,0,0,0-3.35,1.07.54.54,0,0,0-.09,1c.6.58,1.19,1.18,1.78,1.77.43.43.86.87,1.3,1.29a.41.41,0,0,0,.64,0,1.14,1.14,0,0,0,.16-.15l3-3a.89.89,0,0,0,.22-.29.41.41,0,0,0-.13-.53A6,6,0,0,0,198.32,164.44Zm-.11,11.86a6,6,0,0,0,3.19-1,.58.58,0,0,0,.13-1c-1-1-2.07-2.08-3.11-3.11-.27-.27-.4-.27-.67,0l-3.09,3.09a.56.56,0,0,0,.11.9A5.93,5.93,0,0,0,198.21,176.3Zm-5.89-5.68a5.67,5.67,0,0,0,.72,2.67,4.21,4.21,0,0,0,.44.66.41.41,0,0,0,.69,0l2.09-2.08,1-1c.24-.24.26-.44.07-.63L194.1,167a.33.33,0,0,0-.45-.07,1.14,1.14,0,0,0-.32.3A6.16,6.16,0,0,0,192.32,170.62Zm11.54-19a1.39,1.39,0,0,0-1.37-1.4,1.38,1.38,0,1,0,0,2.76A1.37,1.37,0,0,0,203.86,151.62Zm0,3.7a1.38,1.38,0,0,0-1.36-1.4,1.38,1.38,0,1,0,0,2.76A1.38,1.38,0,0,0,203.86,155.32Zm-5.6-2.34a1.38,1.38,0,1,0-1.38-1.36A1.37,1.37,0,0,0,198.26,153Zm-4.33,3.7a1.38,1.38,0,1,0-.05-2.76,1.42,1.42,0,0,0-1.32,1.36A1.39,1.39,0,0,0,193.93,156.68Zm4.3,0a1.38,1.38,0,1,0-1.35-1.39A1.39,1.39,0,0,0,198.23,156.68Zm5.63,2.33a1.37,1.37,0,0,0-1.37-1.38A1.39,1.39,0,0,0,201.1,159a1.4,1.4,0,0,0,1.38,1.39A1.39,1.39,0,0,0,203.86,159Zm-10-13.42a1.37,1.37,0,1,0,.16,2.74,1.39,1.39,0,0,0,1.25-1.46A1.36,1.36,0,0,0,193.91,145.59Zm0,12a1.37,1.37,0,0,0-1.39,1.35,1.38,1.38,0,1,0,1.39-1.35Zm4.33,0a1.39,1.39,0,0,0-1.41,1.34,1.38,1.38,0,1,0,2.76,0A1.37,1.37,0,0,0,198.28,157.63ZM193.93,153a1.38,1.38,0,1,0-1.37-1.39A1.37,1.37,0,0,0,193.93,153Zm8.54-4.31a1.37,1.37,0,1,0,0-2.74,1.37,1.37,0,1,0,0,2.74Zm-8.36,14.43H195a.68.68,0,0,0,.72-.67.67.67,0,0,0-.71-.74h-1.68a.71.71,0,1,0,0,1.41Zm4.13,0h.82a.71.71,0,0,0,.75-.69.7.7,0,0,0-.74-.72h-1.66a.71.71,0,1,0,0,1.41Zm4,0h.84a.71.71,0,1,0,0-1.41h-1.61a.73.73,0,0,0-.79.75.74.74,0,0,0,.8.67Zm-4,15.53h.86a.68.68,0,0,0,.68-.71.69.69,0,0,0-.69-.68H197.4a.7.7,0,1,0,0,1.39Zm4-1.4h-.86a.69.69,0,0,0-.7.69.67.67,0,0,0,.68.7h1.74a.68.68,0,0,0,.69-.7.69.69,0,0,0-.71-.69Zm-8.21,1.39H195a.66.66,0,0,0,.68-.69.67.67,0,0,0-.69-.7h-1.72a.7.7,0,0,0-.7.7.69.69,0,0,0,.7.69Z"/></g><path d="M468.08,48.36,474,45.67l.48.88-3.42,2.18,2,2.59-.72.63Z"/><path d="M358.14,9.76h-5.86A4.21,4.21,0,0,1,358.14,9.76Z"/><path d="M748.62,15.6c1.49-.12,3-.26,4.46-.31.2,0,.61.48.59.71a.94.94,0,0,1-.66.69c-1.42.06-2.85,0-4.27,0Z"/><path d="M367.24,10.25,361.73,10A3.71,3.71,0,0,1,367.24,10.25Z"/><path d="M538.66,54.71l-4.74-1.91.38-.93a8.43,8.43,0,0,1,4.77,1.86Z"/><path d="M585.23,65.6h-5C581.07,64.07,583.31,63.93,585.23,65.6Z"/><path d="M620.76,33.1l3.49-3.66.84.77L621.75,34Z"/><path d="M768,15.55l4.93.47c0,.39-.07.78-.11,1.18l-5-.38C767.91,16.39,768,16,768,15.55Z"/><path d="M257,35.75a3.49,3.49,0,0,1-4.53,3.1Z"/><path d="M637.55,70.05l4.88,1.38-.19.82c-1.85.62-3.36-.46-4.94-1.14Z"/><path d="M468,64.79c-2.34-.48-3.3-2.28-2.71-4.87Z"/><path d="M679.48,51.3l-4.66,2.05c-.17-.37-.34-.75-.5-1.12L679,50.09Z"/><path d="M758.35,15.56h4.88v.75c-1.62.84-3.26.5-4.9,0Z"/><path d="M491.75,65.1l1.88-4.88C494.91,62,494.13,64.29,491.75,65.1Z"/><path d="M296.47,5.11l5.36-1.43a4.38,4.38,0,0,1-5.19,2.07Z"/><path d="M665.72,72.52l4.8-1.18.29,1.18L666,73.68C665.91,73.3,665.82,72.91,665.72,72.52Z"/><path d="M767.26,31.67l5,.31-.05.78h-5Z"/><path d="M734.63,18.2l-4.9.85c-.08-.38-.15-.77-.22-1.15l4.87-1C734.47,17.33,734.55,17.77,734.63,18.2Z"/><path d="M265.77,32.27,261,35.08A3.54,3.54,0,0,1,265.77,32.27Z"/><path d="M629.42,28l4.75,1.46c-.11.38-.22.76-.34,1.14l-4.77-1.39Z"/><path d="M589.74,64.44l4.94-.55.13,1.18-4.94.55Z"/><path d="M286.83,21.58l4.74-1.79.44,1.08-4.67,1.92Z"/><path d="M422.84,23.67l-4.78-1.77.4-1.15,4.76,1.73Z"/><path d="M400.19,14.85,405,16.24l-.29,1.13-4.89-1.29Z"/><path d="M613.49,60.08l-4.82,1.74-.42-1.13,4.81-1.83C613.2,59.26,613.35,59.67,613.49,60.08Z"/><path d="M427,25.31c2.29-.9,4.51.22,4.87,2.3Z"/><path d="M274,26.78c-.42,2.14-2.31,3.2-4.82,2.55Z"/><path d="M642.23,59.42c-1.49-.37-3-.72-4.46-1.13-.14,0-.3-.52-.24-.74s.44-.48.62-.44c1.47.33,2.93.73,4.39,1.1Z"/><path d="M616.65,57.3l5-2.4A3.77,3.77,0,0,1,616.65,57.3Z"/><path d="M343.2,10.62c1-1.9,2.71-2.09,4.82-.56Z"/><path d="M328.89,11.16c-.66,1.36-2.92,1.88-4.81,1.1A4.28,4.28,0,0,1,328.89,11.16Z"/><path d="M630.33,49.72A4.27,4.27,0,0,1,625.15,53Z"/><path d="M688.27,47.51l-4.73,1.94-.35-.83a7,7,0,0,1,4.71-2Z"/><path d="M338.57,10.85l-4.9.54-.12-.92c1.51-1.07,3.23-.66,4.9-.63Z"/><path d="M636.8,43.54l-2.71,4.28-1-.62,2.64-4.32Z"/><path d="M743.64,33.43l-5,.6c0-.39-.11-.78-.16-1.16l5-.64Z"/><path d="M507,42.87l4.89,1.19-.26,1.12-4.92-1.11C506.84,43.67,506.93,43.27,507,42.87Z"/><path d="M715.43,38.5,710.19,40a4.26,4.26,0,0,1,5.06-2.09Z"/><path d="M457.05,40.73l-4.35-2.59.58-1,4.39,2.47Z"/><path d="M390.8,12.66c1.47.29,2.95.55,4.42.88.17,0,.43.54.37.65-.16.26-.52.6-.75.57-1.44-.24-2.86-.57-4.3-.87Z"/><path d="M674.76,71.21a3.85,3.85,0,0,1,5-2.65Z"/><path d="M786.38,33.61l5.46,1a4.31,4.31,0,0,1-5.6-.39Z"/><path d="M791.78,19.75l-5.3-1C788.42,17.41,790.73,17.77,791.78,19.75Z"/><path d="M800.44,37.75l-4.92-1.26.26-1.1,4.93,1.1Z"/><path d="M661.23,74.29l-5,.21-.06-1.15,5-.3Z"/><path d="M479.36,58.42a4.57,4.57,0,0,1-3.08-4.69l3.62,4.21Z"/><path d="M629.07,53.17l4.83,2.71C631.47,56.56,629.23,55.37,629.07,53.17Z"/><path d="M466.68,51.55c-.53,1.59-1.07,3.17-1.76,5.21C463.87,54.47,464.49,52.58,466.68,51.55Z"/><path d="M739.05,16.19h5.27C742.64,17.84,739.76,17.85,739.05,16.19Z"/><path d="M599.26,63.34c1.53-.79,3.08-1.47,4.87-1l.19.82-4.83,1.2Z"/><path d="M700.52,41.6l5.77-1.92A4.27,4.27,0,0,1,700.52,41.6Z"/><path d="M485.46,71.85l4.32-3.62C489.34,70.8,487.68,72.2,485.46,71.85Z"/><path d="M476.7,75.85l5.05-1.65A3.77,3.77,0,0,1,476.7,75.85Z"/><path d="M377.32,11.34l-5.92-.66C373.09,9.19,375.56,9.44,377.32,11.34Z"/><path d="M436.3,28.15l4.84,2.3A4.11,4.11,0,0,1,436,28.8Z"/><path d="M305.2,15.67,310,14.35l.32,1.13-4.84,1.41Z"/><path d="M624.62,51.48l-3.26-3.89.86-.76,3.33,3.8Z"/><path d="M661.54,58.57l-4.89.89-.22-1.08,4.82-1.11Z"/><path d="M448.84,35.83l-4.52-2.3.51-1,4.52,2.21Z"/><path d="M651.89,59.74H647l0-.76h4.86Z"/><path d="M748.18,31.85,753,31.6l0,.91a6.4,6.4,0,0,1-4.91.36Z"/><path d="M758.23,31.67l4.82.12,0,.91a6.4,6.4,0,0,1-4.92,0Z"/><path d="M283.05,24.29l-4.64,2-.47-1.06,4.62-2Z"/><path d="M270.87,18c.83-2.4,2.47-3.35,4.76-2.89Z"/><path d="M556.76,61.16l-5-1.58a3.88,3.88,0,0,1,5.2,1Z"/><path d="M692,44.67,696.72,43l.39,1-4.67,1.86Z"/><path d="M478.33,44l5-1.34c-.62,1.81-2.94,2.59-4.84,2Z"/><path d="M461.52,42.11,466,45.18a4.26,4.26,0,0,1-4.89-2.51Z"/><path d="M472.54,77.69l-4.86.39-.08-.9a7.64,7.64,0,0,1,4.85-.5Z"/><path d="M561.52,61.19l4.87,1.18-.25,1.13-4.88-1.06C561.35,62,561.44,61.61,561.52,61.19Z"/><path d="M305.84,2.75l5-.93.22,1.1L306.08,4Z"/><path d="M283.65,11.12,279,13.24l-.49-1L283.12,10Z"/><path d="M481.35,61.8c1.52,2.75,1.1,4.38-1.17,5.43C480.56,65.47,480.9,63.92,481.35,61.8Z"/><path d="M543.38,55.2l4.72,1.73L547.73,58,543,56.34Z"/><path d="M381.45,10.73l4.89.94-.22,1.17L381.2,12Z"/><path d="M575.56,65.24l-4.95-.74.13-1.09,5,.57Z"/><path d="M719.57,36.15l4.91-1,.25,1.19-4.89,1.05Z"/><path d="M665.56,56.06l4.71-1.8.42,1L666,57.24Z"/><path d="M315.38,1l5.46-.79C319.2,2.12,317.11,2.43,315.38,1Z"/><path d="M319.63,13.54l-5.28,1.2a4.27,4.27,0,0,1,5.14-1.91Z"/><path d="M529.63,51.22l-4.51-1.92.43-1,4.61,1.84Z"/><path d="M413.83,20.35l-5.19-1.68a4.36,4.36,0,0,1,5.39,1Z"/><path d="M516.41,45.18l4.76,1.59-.34,1.09L516,46.44C516.16,46,516.28,45.6,516.41,45.18Z"/><path d="M827.78,46.18l-4.87-1.7c1.53-1.17,3.69-.56,5.09,1.08Z"/><path d="M301.55,18.13l-5.28,1.32C297.51,17.41,299.73,16.84,301.55,18.13Z"/><path d="M810.11,24.58l-5-1.65A3.27,3.27,0,0,1,810.11,24.58Z"/><path d="M487.81,42l4.94-.22.08,1.08-4.92.43Z"/><path d="M796.59,19.42l4.81,1.15c-.06.26-.11.52-.16.78-1.77.48-3.32-.2-4.87-.93Z"/><path d="M776.9,32.39l5.46.59C780.35,34.4,778.51,34.24,776.9,32.39Z"/><path d="M287.45,8.15l4.72-1.5.32,1-4.7,1.63Z"/><path d="M497.54,41.74l4.87.41-.07.88c-1.69.82-3.27.08-4.88-.34Z"/><path d="M245.21,44.18l3.53-2.85.54.65c-.57,1.67-2.15,2.18-3.34,3.13Z"/><path d="M818.93,42.74c-1.81.24-3.29-.65-4.79-1.45l.27-.87,4.78,1.46C819.1,42.16,819,42.45,818.93,42.74Z"/><path d="M805.19,37.7,810,39l-.27,1-4.79-1.22Z"/><path d="M646.8,72.47l4.91.65-.13,1.07-4.9-.56Z"/><path d="M728.55,34.29l5.58-.9A3.69,3.69,0,0,1,728.55,34.29Z"/><path d="M777.55,16.41l4.78.56-.07.85c-1.66.66-3.24.12-4.82-.41Z"/><path d="M470.77,67.41l5.75.83C474.32,69.63,472.46,69.37,470.77,67.41Z"/><path d="M620.33,38c.14,1.4.32,2.81.39,4.21,0,.24-.38.5-.58.75-.25-.22-.71-.42-.72-.64-.07-1.43,0-2.87,0-4.3Z"/><path d="M636.78,39c-.21-2-.36-3.59-.56-5.58C638.17,35.16,638.36,37.27,636.78,39Z"/></svg>