<svg id="Layer_1" data-name="Layer 1" xmlns="http://www.w3.org/2000/svg" viewBox="0 0 75 70"><defs><style>.cls-1{fill:#1e99fb;}.cls-2{fill:#8ec7f5;}.cls-3{fill:#d8e6f1;}.cls-4{fill:#c9e0f2;}</style></defs><title>Artboard 5</title><path class="cls-1" d="M32.4,12.29c8.25,0,16.5,0,24.75,0,5,0,7.26,2,7.73,6.88.17,1.79,0,3.61,0,5.41,0,7.22,0,14.44,0,21.65a14,14,0,0,1-1.22,5.68c-1.25,2.84-2.57,4-5.46,3.82-1-.07-2.07.08-3.09,0-1.91-.19-2.7.38-2.68,2.5,0,3.26-.36,6.53-.57,9.79-4.18-.19-5.86-3.89-8-6.39-4-4.76-8.5-6.47-14.68-6-7.69.56-15.45.17-23.19.11-3.35,0-4.68-1.21-4.7-4.35q-.11-17.4,0-34.79c0-3.05,1.41-4.24,4.78-4.26C14.88,12.25,23.64,12.29,32.4,12.29Zm-.21,7.76c-5.9,0-7.68.92-9,5.44-.34,1.1-1.12,3.16,1,3.84,2.44.77,4.69-.21,5-2.31.19-1.45.26-2.55,2-2.3,1.42.2,3,.25,4.14,1,.41.25.1,2.54-.55,3.4-1.37,1.82-3.43,3.15-4.71,5-.7,1-.39,2.71-.53,4.1,1.39-.05,3.22.44,4.09-.26a51.2,51.2,0,0,0,7.11-7c2.41-2.86.35-9.82-3.19-10.81C35.89,19.66,34,20.05,32.19,20.05ZM29.11,47.81c3.35.54,5.4-.08,6.27-2.58.53-1.51-1.8-3.47-3.88-3.46-2.34,0-4,1.68-3.74,4.31C27.82,46.88,28.92,47.59,29.11,47.81Z"/><path class="cls-2" d="M36.35,9.19c-8,0-16,0-24,0-.59,0-1.73-.74-1.69-.92.22-.91.52-2.21,1.19-2.52,3.06-1.45,6.14-2.79,9.7-2.76,11.85.11,23.71,0,35.56.05,3.21,0,6.27,0,9.47,1.4,4.87,2.13,6,2.92,6,7.9,0,9-.13,18,.1,27.05A6.61,6.61,0,0,1,70,45.17a12.41,12.41,0,0,1-2.56,1.25,8.35,8.35,0,0,1-.92-2.58c-.07-9.54,0-19.07,0-28.61,0-4.1-1.75-5.88-6.14-6s-8.76,0-13.14,0Z"/><path class="cls-3" d="M32.19,20.05c1.8,0,3.7-.39,5.36.08,3.54,1,5.6,8,3.19,10.81a51.2,51.2,0,0,1-7.11,7c-.87.7-2.7.21-4.09.26.14-1.39-.17-3.09.53-4.1,1.28-1.87,3.34-3.2,4.71-5,.65-.86,1-3.15.55-3.4-1.14-.72-2.72-.77-4.14-1-1.78-.25-1.85.85-2,2.3-.28,2.1-2.53,3.08-5,2.31-2.16-.68-1.38-2.74-1-3.84C24.51,21,26.29,20.05,32.19,20.05Z"/><path class="cls-4" d="M29.11,47.81c-.19-.22-1.29-.93-1.35-1.73-.22-2.63,1.4-4.31,3.74-4.31,2.08,0,4.41,1.95,3.88,3.46C34.51,47.73,32.46,48.35,29.11,47.81Z"/></svg>