<svg id="Layer_1" data-name="Layer 1" xmlns="http://www.w3.org/2000/svg" viewBox="0 0 75 70"><defs><style>.cls-1{fill:#1e99fb;}.cls-2{fill:#8cc7f5;}.cls-3{fill:#dbe7f1;}</style></defs><title>Artboard 5 copy</title><path class="cls-1" d="M68.55,26.11c0,4.61,1.21,9.69-.35,13.7-1.46,3.74-5.85,6.34-9,9.44l-15,15c-.87.86-1.69,1.76-2.59,2.58-3.91,3.55-6.67,3.61-10.57-.15-5.44-5.25-10.73-10.65-16-16-2.15-2.17-4.4-4.17-5.81-7.09-1-2.12-1-3.47.62-5.06Q23.59,24.83,37.26,11.1a9.83,9.83,0,0,1,7.61-2.84q7.68.13,15.36,0c2-.05,3.53.73,5.3,1.36,2.58.91,3.25,2.36,3.19,4.79-.1,3.9,0,7.81,0,11.71Zm-7.19-3a6,6,0,0,0-5.52-6,5.85,5.85,0,0,0-6.21,6.06c0,2.73,3.12,5.69,5.88,5.67S61.32,25.85,61.36,23.11Z"/><path class="cls-2" d="M50.09,7c-4.85,0-10.2-1.28-14.41.37-3.95,1.55-6.7,6.18-10,9.45-6,6-12,12.09-18.12,18.08A9.7,9.7,0,0,1,5.2,36.14c-.34-1-.74-2-1-3.06-.44-1.64.53-2.65,1.61-3.72,9-8.94,18-17.86,26.85-26.92C34.06,1,35.47.93,37.18.94,44,1,50.84,1.17,57.65.85c2.93-.14,4.4,1.45,6,3.2a2.23,2.23,0,0,1,.54,1.88c-.16.44-1.08.84-1.68.85-4.14.07-8.29,0-12.43,0Z"/><path class="cls-3" d="M61.36,23.11c0,2.74-3,5.68-5.85,5.7s-5.83-2.94-5.88-5.67a5.85,5.85,0,0,1,6.21-6.06A6,6,0,0,1,61.36,23.11Z"/></svg>