<svg id="Layer_1" data-name="Layer 1" xmlns="http://www.w3.org/2000/svg" viewBox="0 0 75 70"><defs><style>.cls-1{fill:#1d99fb;}.cls-2{fill:#89c5f5;}.cls-3{fill:#e5ecf0;}</style></defs><title>Artboard 5 copy 2</title><path class="cls-1" d="M37.92,32.1q-12.33,0-24.64,0c-2.65,0-3.8-1.82-2.48-4a34.41,34.41,0,0,1,3.59-5c6.43-7,12.9-14,19.47-20.92,2.87-3,5.38-2.89,8.41.1a70.42,70.42,0,0,1,9.32,10.61c2.48,3.67,6.7,5.89,8.75,10.15,1,2.06,3.42,3.37,5,5.22,1.21,1.45-.1,3.8-2,3.8C54.83,32.11,46.37,32.1,37.92,32.1Z"/><path class="cls-2" d="M37.35,37.9H59.79a17.28,17.28,0,0,1,3.6.06c1.8.38,2.51,3.09,1.26,4.47-2.51,2.77-5,5.5-7.32,8.5-4.59,6-10,11.4-15.23,16.9-2.85,3-5.34,2.85-8.4-.17a71.4,71.4,0,0,1-9.31-10.6c-2.49-3.66-6.69-5.88-8.74-10.14-1-2.05-3.42-3.37-5-5.22-1.2-1.44.12-3.78,2-3.79C20.93,37.88,29.14,37.9,37.35,37.9Zm.76,4.35H22.16c-1.79,0-1.81,1.15-1.32,2.38a6.82,6.82,0,0,0,1.21,1.67c3.68,4.51,7.3,9.08,11.09,13.5,1.36,1.59,3,3.65,4.8,4,2.44.48,2.63-2.66,3.79-4.24a14.28,14.28,0,0,1,1-1c3.93-4.4,7.89-8.79,11.75-13.26a4.31,4.31,0,0,0,.67-2.45,3.57,3.57,0,0,0-1.85-.54C48.25,42.23,43.18,42.25,38.11,42.25Z"/><path class="cls-3" d="M38.11,42.25c5.07,0,10.14,0,15.21,0a3.57,3.57,0,0,1,1.85.54,4.31,4.31,0,0,1-.67,2.45c-3.86,4.47-7.82,8.86-11.75,13.26a14.28,14.28,0,0,0-1,1c-1.16,1.58-1.35,4.72-3.79,4.24-1.81-.36-3.44-2.42-4.8-4-3.79-4.42-7.41-9-11.09-13.5a6.82,6.82,0,0,1-1.21-1.67c-.49-1.23-.47-2.37,1.32-2.38Z"/></svg>